<?xml version="1.0" standalone="no"?>
<!DOCTYPE svg PUBLIC "-//W3C//DTD SVG 20010904//EN"
 "http://www.w3.org/TR/2001/REC-SVG-20010904/DTD/svg10.dtd">
<svg version="1.0" xmlns="http://www.w3.org/2000/svg"
 width="700.000000pt" height="700.000000pt" viewBox="0 0 700.000000 700.000000"
 preserveAspectRatio="xMidYMid meet">
<metadata>
Created by potrace 1.11, written by Peter Selinger 2001-2013
</metadata>
<g transform="translate(0.000000,700.000000) scale(0.100000,-0.100000)"
fill="#000000" stroke="none">
<path d="M3335 6420 c-102 -26 -181 -64 -260 -125 -117 -90 -196 -201 -242
-340 -23 -69 -27 -97 -27 -210 -1 -135 10 -193 56 -293 79 -176 239 -318 425
-380 67 -22 96 -26 208 -26 110 -1 142 3 205 23 210 65 374 217 451 416 138
353 -34 760 -380 900 -137 56 -303 69 -436 35z"/>
<path d="M3180 4246 c0 -2 8 -10 18 -17 15 -13 16 -12 3 4 -13 16 -21 21 -21
13z"/>
<path d="M3834 4116 c1 -8 5 -18 8 -22 4 -3 5 1 4 10 -1 8 -5 18 -8 22 -4 3
-5 -1 -4 -10z"/>
<path d="M3470 4101 c0 -6 4 -13 10 -16 6 -3 7 1 4 9 -7 18 -14 21 -14 7z"/>
<path d="M3335 4071 c-3 -5 -2 -12 3 -15 5 -3 9 1 9 9 0 17 -3 19 -12 6z"/>
<path d="M3675 4069 c-4 -6 -5 -12 -2 -15 2 -3 7 2 10 11 7 17 1 20 -8 4z"/>
<path d="M3014 4056 c1 -8 5 -18 8 -22 4 -3 5 1 4 10 -1 8 -5 18 -8 22 -4 3
-5 -1 -4 -10z"/>
<path d="M3576 4058 c3 -5 10 -6 15 -3 13 9 11 12 -6 12 -8 0 -12 -4 -9 -9z"/>
<path d="M3736 4058 c3 -5 10 -6 15 -3 13 9 11 12 -6 12 -8 0 -12 -4 -9 -9z"/>
<path d="M3830 4060 c0 -5 5 -10 11 -10 5 0 7 5 4 10 -3 6 -8 10 -11 10 -2 0
-4 -4 -4 -10z"/>
<path d="M3954 4062 c4 -3 14 -7 22 -8 9 -1 13 0 10 4 -4 3 -14 7 -22 8 -9 1
-13 0 -10 -4z"/>
<path d="M3100 4046 c0 -2 8 -10 18 -17 15 -13 16 -12 3 4 -13 16 -21 21 -21
13z"/>
<path d="M3185 4039 c-3 -4 2 -6 10 -5 21 3 28 13 10 13 -9 0 -18 -4 -20 -8z"/>
<path d="M3245 4040 c-3 -6 1 -7 9 -4 18 7 21 14 7 14 -6 0 -13 -4 -16 -10z"/>
<path d="M3495 4040 c3 -5 8 -10 11 -10 2 0 4 5 4 10 0 6 -5 10 -11 10 -5 0
-7 -4 -4 -10z"/>
<path d="M4045 4040 c-3 -6 1 -7 9 -4 18 7 21 14 7 14 -6 0 -13 -4 -16 -10z"/>
<path d="M3334 4016 c1 -8 5 -18 8 -22 4 -3 5 1 4 10 -1 8 -5 18 -8 22 -4 3
-5 -1 -4 -10z"/>
<path d="M3366 4022 c-3 -5 1 -9 9 -9 8 0 12 4 9 9 -3 4 -7 8 -9 8 -2 0 -6 -4
-9 -8z"/>
<path d="M3530 4019 c0 -5 5 -7 10 -4 6 3 10 8 10 11 0 2 -4 4 -10 4 -5 0 -10
-5 -10 -11z"/>
<path d="M3695 4020 c3 -5 8 -10 11 -10 2 0 4 5 4 10 0 6 -5 10 -11 10 -5 0
-7 -4 -4 -10z"/>
<path d="M3970 4020 c0 -5 5 -10 11 -10 5 0 7 5 4 10 -3 6 -8 10 -11 10 -2 0
-4 -4 -4 -10z"/>
<path d="M3475 4011 c-3 -5 -2 -12 3 -15 5 -3 9 1 9 9 0 17 -3 19 -12 6z"/>
<path d="M3190 4001 c0 -6 4 -13 10 -16 6 -3 7 1 4 9 -7 18 -14 21 -14 7z"/>
<path d="M3240 4000 c-9 -6 -10 -10 -3 -10 6 0 15 5 18 10 8 12 4 12 -15 0z"/>
<path d="M3800 4000 c-9 -6 -10 -10 -3 -10 6 0 15 5 18 10 8 12 4 12 -15 0z"/>
<path d="M4040 4000 c-9 -6 -10 -10 -3 -10 6 0 15 5 18 10 8 12 4 12 -15 0z"/>
<path d="M2999 3953 c-13 -16 -12 -17 4 -4 16 13 21 21 13 21 -2 0 -10 -8 -17
-17z"/>
<path d="M3185 3959 c-3 -4 2 -6 10 -5 21 3 28 13 10 13 -9 0 -18 -4 -20 -8z"/>
<path d="M3435 3961 c-3 -5 -2 -12 3 -15 5 -3 9 1 9 9 0 17 -3 19 -12 6z"/>
<path d="M3795 3960 c-3 -5 -1 -10 4 -10 6 0 11 5 11 10 0 6 -2 10 -4 10 -3 0
-8 -4 -11 -10z"/>
<path d="M3336 3942 c-2 -4 -1 -14 4 -22 7 -11 9 -9 7 8 -1 24 -3 26 -11 14z"/>
<path d="M2936 3927 c3 -10 9 -15 12 -12 3 3 0 11 -7 18 -10 9 -11 8 -5 -6z"/>
<path d="M3114 3932 c4 -7 2 -21 -5 -30 -12 -15 -11 -15 6 0 16 15 17 20 6 30
-11 11 -13 10 -7 0z"/>
<path d="M3149 3923 c-13 -16 -12 -17 4 -4 16 13 21 21 13 21 -2 0 -10 -8 -17
-17z"/>
<path d="M3190 3936 c0 -2 8 -10 18 -17 15 -13 16 -12 3 4 -13 16 -21 21 -21
13z"/>
<path d="M3875 3929 c-4 -6 -5 -12 -2 -15 2 -3 7 2 10 11 7 17 1 20 -8 4z"/>
<path d="M3956 3927 c3 -10 9 -15 12 -12 3 3 0 11 -7 18 -10 9 -11 8 -5 -6z"/>
<path d="M3995 3929 c-4 -6 -5 -12 -2 -15 2 -3 7 2 10 11 7 17 1 20 -8 4z"/>
<path d="M3426 3922 c-3 -5 1 -9 9 -9 8 0 12 4 9 9 -3 4 -7 8 -9 8 -2 0 -6 -4
-9 -8z"/>
<path d="M3835 3920 c3 -5 8 -10 11 -10 2 0 4 5 4 10 0 6 -5 10 -11 10 -5 0
-7 -4 -4 -10z"/>
<path d="M3599 3893 c-13 -16 -12 -17 4 -4 16 13 21 21 13 21 -2 0 -10 -8 -17
-17z"/>
<path d="M3377 3893 c-10 -9 -9 -23 1 -23 5 0 9 7 9 15 0 17 -1 18 -10 8z"/>
<path d="M3936 3887 c3 -10 9 -15 12 -12 3 3 0 11 -7 18 -10 9 -11 8 -5 -6z"/>
<path d="M3115 3881 c-3 -5 -2 -12 3 -15 5 -3 9 1 9 9 0 17 -3 19 -12 6z"/>
<path d="M3496 3882 c-3 -5 1 -9 9 -9 8 0 12 4 9 9 -3 4 -7 8 -9 8 -2 0 -6 -4
-9 -8z"/>
<path d="M3976 3878 c3 -5 10 -6 15 -3 13 9 11 12 -6 12 -8 0 -12 -4 -9 -9z"/>
<path d="M3146 3862 c-3 -5 1 -9 9 -9 8 0 15 4 15 9 0 4 -4 8 -9 8 -6 0 -12
-4 -15 -8z"/>
<path d="M3314 3835 c0 -19 3 -32 5 -29 8 7 9 54 2 59 -4 2 -7 -12 -7 -30z"/>
<path d="M3355 3850 c10 -11 20 -20 23 -20 3 0 -3 9 -13 20 -10 11 -20 20 -23
20 -3 0 3 -9 13 -20z"/>
<path d="M3745 3860 c-3 -6 1 -7 9 -4 18 7 21 14 7 14 -6 0 -13 -4 -16 -10z"/>
<path d="M3855 3851 c-3 -6 -14 -8 -24 -6 -10 2 -18 -3 -18 -11 0 -9 4 -11 12
-4 7 5 14 8 17 5 3 -3 11 1 18 10 7 8 10 15 7 15 -3 0 -8 -4 -12 -9z"/>
<path d="M3974 3840 c0 -13 4 -16 10 -10 7 7 7 13 0 20 -6 6 -10 3 -10 -10z"/>
<path d="M3093 3835 c0 -8 4 -12 9 -9 4 3 8 9 8 15 0 5 -4 9 -8 9 -5 0 -9 -7
-9 -15z"/>
<path d="M3216 3838 c3 -5 10 -6 15 -3 13 9 11 12 -6 12 -8 0 -12 -4 -9 -9z"/>
<path d="M3390 3840 c0 -5 9 -8 20 -7 21 1 18 10 -5 13 -8 1 -15 -2 -15 -6z"/>
<path d="M3496 3838 c3 -5 10 -6 15 -3 13 9 11 12 -6 12 -8 0 -12 -4 -9 -9z"/>
<path d="M3553 3835 c0 -8 4 -12 9 -9 5 3 6 10 3 15 -9 13 -12 11 -12 -6z"/>
<path d="M3630 3840 c0 -5 9 -8 20 -7 21 1 18 10 -5 13 -8 1 -15 -2 -15 -6z"/>
<path d="M4029 3823 c-13 -16 -12 -17 4 -4 9 7 17 15 17 17 0 8 -8 3 -21 -13z"/>
<path d="M3147 3819 c7 -9 11 -18 8 -21 -3 -3 3 -11 12 -19 16 -12 17 -12 6 2
-7 9 -11 18 -8 21 3 3 -3 11 -12 19 -16 12 -17 12 -6 -2z"/>
<path d="M3216 3807 c3 -10 9 -15 12 -12 3 3 0 11 -7 18 -10 9 -11 8 -5 -6z"/>
<path d="M3659 3818 c-5 -18 -6 -38 -1 -34 7 8 12 36 6 36 -2 0 -4 -1 -5 -2z"/>
<path d="M3775 3809 c-4 -6 -5 -12 -2 -15 2 -3 7 2 10 11 7 17 1 20 -8 4z"/>
<path d="M3995 3809 c-4 -6 -5 -12 -2 -15 2 -3 7 2 10 11 7 17 1 20 -8 4z"/>
<path d="M3030 3803 c0 -6 8 -17 18 -24 16 -13 16 -13 2 6 -8 11 -16 22 -17
24 -2 2 -3 0 -3 -6z"/>
<path d="M3090 3801 c0 -6 4 -13 10 -16 6 -3 7 1 4 9 -7 18 -14 21 -14 7z"/>
<path d="M3180 3806 c0 -2 8 -10 18 -17 15 -13 16 -12 3 4 -13 16 -21 21 -21
13z"/>
<path d="M3471 3787 c-13 -21 -12 -21 5 -5 10 10 16 20 13 22 -3 3 -11 -5 -18
-17z"/>
<path d="M3826 3800 c6 -8 10 -23 8 -33 -1 -11 0 -16 3 -13 4 3 13 0 22 -6 12
-10 12 -7 -2 8 -9 11 -15 23 -12 26 3 3 -3 11 -12 19 -16 12 -17 12 -7 -1z"/>
<path d="M3924 3802 c4 -3 14 -7 22 -8 9 -1 13 0 10 4 -4 3 -14 7 -22 8 -9 1
-13 0 -10 -4z"/>
<path d="M3279 3795 c-1 -3 -2 -17 -3 -32 -1 -16 -4 -33 -8 -39 -4 -6 -2 -11
5 -11 8 0 13 16 13 44 0 38 -3 54 -7 38z"/>
<path d="M3709 3783 c-13 -16 -12 -17 4 -4 16 13 21 21 13 21 -2 0 -10 -8 -17
-17z"/>
<path d="M3790 3796 c0 -2 8 -10 18 -17 15 -13 16 -12 3 4 -13 16 -21 21 -21
13z"/>
<path d="M3240 3775 c-7 -9 -11 -17 -9 -20 3 -2 10 5 17 15 14 24 10 26 -8 5z"/>
<path d="M3359 3773 c-13 -16 -12 -17 4 -4 16 13 21 21 13 21 -2 0 -10 -8 -17
-17z"/>
<path d="M3599 3773 c-13 -16 -12 -17 4 -4 16 13 21 21 13 21 -2 0 -10 -8 -17
-17z"/>
<path d="M3878 3764 c9 -12 19 -20 21 -18 2 2 -1 10 -7 17 -7 8 -10 16 -7 19
3 2 -1 5 -9 5 -12 0 -11 -5 2 -23z"/>
<path d="M4035 3782 c3 -3 0 -11 -7 -19 -6 -7 -9 -15 -7 -17 2 -2 12 6 21 18
13 18 14 23 2 23 -8 0 -12 -3 -9 -5z"/>
<path d="M3022 3764 c10 -10 20 -16 22 -13 3 3 -5 11 -17 18 -21 13 -21 12 -5
-5z"/>
<path d="M3084 3762 c23 -26 23 -26 23 -7 0 8 -3 13 -5 10 -3 -3 -12 1 -21 7
-10 8 -9 4 3 -10z"/>
<path d="M3133 3767 c0 -8 6 -14 14 -14 9 0 10 4 2 14 -6 7 -12 13 -14 13 -1
0 -2 -6 -2 -13z"/>
<path d="M3439 3775 c-1 -3 -2 -8 -3 -12 -1 -5 -5 -15 -10 -23 -7 -12 -6 -13
4 -3 13 12 23 43 14 43 -2 0 -5 -2 -5 -5z"/>
<path d="M3491 3767 c-8 -10 -7 -14 2 -14 8 0 14 6 14 14 0 7 -1 13 -2 13 -2
0 -8 -6 -14 -13z"/>
<path d="M3679 3775 c-1 -3 -2 -8 -3 -12 -1 -5 -5 -15 -10 -23 -7 -12 -6 -13
4 -3 13 12 23 43 14 43 -2 0 -5 -2 -5 -5z"/>
<path d="M3729 3763 c-8 -9 -9 -14 -2 -10 6 4 13 1 16 -5 3 -7 4 -3 4 10 -1
26 -1 26 -18 5z"/>
<path d="M3774 3761 c0 -11 5 -17 13 -14 10 4 11 9 2 19 -15 18 -15 18 -15 -5z"/>
<path d="M3943 3764 c9 -11 14 -24 10 -27 -3 -4 -1 -7 5 -7 19 0 14 15 -10 36
-23 19 -23 19 -5 -2z"/>
<path d="M4059 3753 c-12 -16 -12 -17 2 -6 9 7 20 9 24 5 5 -4 5 -1 1 6 -9 16
-11 15 -27 -5z"/>
<path d="M2991 3747 c-8 -10 -7 -14 2 -14 8 0 14 6 14 14 0 7 -1 13 -2 13 -2
0 -8 -6 -14 -13z"/>
<path d="M2935 3741 c-3 -6 -3 -11 2 -10 20 3 23 -2 12 -23 -11 -22 -11 -22 7
-5 17 16 17 18 2 33 -11 11 -18 13 -23 5z"/>
<path d="M3165 3739 c-4 -6 -5 -12 -2 -15 2 -3 7 2 10 11 7 17 1 20 -8 4z"/>
<path d="M3344 3742 c4 -7 2 -20 -6 -30 -12 -16 -11 -16 7 -2 11 8 21 15 23
16 1 1 -5 7 -15 15 -12 10 -15 10 -9 1z"/>
<path d="M3471 3733 c7 -12 15 -20 18 -17 3 2 -3 12 -13 22 -17 16 -18 16 -5
-5z"/>
<path d="M3545 3740 c-3 -6 1 -7 9 -4 18 7 21 14 7 14 -6 0 -13 -4 -16 -10z"/>
<path d="M3590 3738 c6 -7 6 -18 -1 -29 -7 -14 -6 -17 5 -13 16 6 15 30 -2 44
-9 7 -9 7 -2 -2z"/>
<path d="M3136 3727 c3 -10 9 -15 12 -12 3 3 0 11 -7 18 -10 9 -11 8 -5 -6z"/>
<path d="M3216 3727 c3 -10 9 -15 12 -12 3 3 0 11 -7 18 -10 9 -11 8 -5 -6z"/>
<path d="M3501 3724 c0 -11 3 -14 6 -6 3 7 2 16 -1 19 -3 4 -6 -2 -5 -13z"/>
<path d="M3713 3725 c0 -8 4 -15 9 -15 4 0 8 4 8 9 0 6 -4 12 -8 15 -5 3 -9
-1 -9 -9z"/>
<path d="M3797 3733 c-10 -9 -9 -23 1 -23 5 0 9 7 9 15 0 17 -1 18 -10 8z"/>
<path d="M3301 3714 c0 -11 3 -14 6 -6 3 7 2 16 -1 19 -3 4 -6 -2 -5 -13z"/>
<path d="M3386 3718 c3 -4 9 -8 15 -8 5 0 9 4 9 8 0 5 -7 9 -15 9 -8 0 -12 -4
-9 -9z"/>
<path d="M3885 3719 c-3 -4 2 -6 10 -5 21 3 28 13 10 13 -9 0 -18 -4 -20 -8z"/>
<path d="M3933 3715 c0 -8 4 -12 9 -9 5 3 6 10 3 15 -9 13 -12 11 -12 -6z"/>
<path d="M3076 3707 c3 -10 9 -15 12 -12 3 3 0 11 -7 18 -10 9 -11 8 -5 -6z"/>
<path d="M3957 3707 c-3 -8 1 -14 8 -14 7 0 11 6 8 14 -3 7 -6 13 -8 13 -2 0
-5 -6 -8 -13z"/>
<path d="M3360 3700 c-9 -6 -10 -10 -3 -10 6 0 15 5 18 10 8 12 4 12 -15 0z"/>
<path d="M3045 3690 c-16 -7 -17 -9 -3 -9 9 -1 20 4 23 9 7 11 7 11 -20 0z"/>
<path d="M3435 3690 c6 -9 4 -12 -7 -8 -8 4 -15 1 -15 -7 0 -7 8 -10 19 -7 21
5 23 17 6 28 -7 5 -8 3 -3 -6z"/>
<path d="M4046 3691 c-17 -6 -17 -8 -4 -14 10 -3 19 0 22 9 3 8 4 14 3 13 -1
0 -11 -4 -21 -8z"/>
<path d="M3115 3680 c-3 -5 -3 -10 2 -10 4 0 1 -5 -7 -11 -12 -8 -12 -10 -1
-7 8 2 15 12 17 21 3 19 -2 22 -11 7z"/>
<path d="M3317 3676 c-3 -8 0 -17 7 -19 10 -4 12 1 9 14 -6 23 -9 24 -16 5z"/>
<path d="M3370 3680 c-11 -7 -11 -10 -2 -10 8 0 10 -5 6 -12 -4 -7 -3 -9 1 -5
7 6 17 37 12 37 -1 0 -9 -5 -17 -10z"/>
<path d="M3536 3674 c-3 -7 2 -10 15 -7 22 6 26 20 4 20 -8 0 -16 -6 -19 -13z"/>
<path d="M3683 3678 c-13 -22 -12 -37 4 -31 12 5 12 7 1 14 -12 8 -4 13 15 10
5 -1 6 3 2 9 -8 13 -12 13 -22 -2z"/>
<path d="M3733 3676 c-4 -5 -1 -6 7 -1 9 6 12 4 8 -7 -7 -16 25 -19 39 -3 5 4
2 4 -6 0 -10 -6 -13 -4 -9 6 6 17 -29 21 -39 5z"/>
<path d="M3916 3675 c-9 -26 -7 -32 5 -12 6 10 9 21 6 23 -2 3 -7 -2 -11 -11z"/>
<path d="M3990 3681 c0 -10 19 -25 25 -20 1 2 -3 10 -11 17 -8 7 -14 8 -14 3z"/>
<path d="M3834 3672 c3 -5 0 -13 -6 -15 -9 -4 -10 -6 -1 -6 17 -1 25 16 12 25
-7 4 -9 3 -5 -4z"/>
<path d="M3468 3643 c4 -19 2 -24 -8 -18 -9 5 -11 4 -6 -4 4 -6 12 -9 17 -6
11 8 12 42 0 49 -4 3 -6 -6 -3 -21z"/>
<path d="M3510 3665 c0 -5 10 -21 21 -35 13 -17 17 -18 10 -5 -17 33 -31 51
-31 40z"/>
<path d="M3588 3643 c5 -21 7 -23 10 -9 2 10 0 22 -6 28 -6 6 -7 0 -4 -19z"/>
<path d="M3867 3649 c4 -13 8 -18 11 -10 2 7 -1 18 -6 23 -8 8 -9 4 -5 -13z"/>
<path d="M3955 3660 c6 -10 4 -12 -10 -6 -16 6 -16 4 -4 -11 7 -10 14 -19 15
-21 1 -1 4 6 7 18 3 11 0 23 -5 27 -7 4 -8 1 -3 -7z"/>
<path d="M2939 3658 c-5 -19 -8 -50 -4 -46 7 7 15 48 9 48 -2 0 -4 -1 -5 -2z"/>
<path d="M2980 3651 c0 -6 4 -13 10 -16 6 -3 7 1 4 9 -7 18 -14 21 -14 7z"/>
<path d="M3075 3651 c-3 -5 -2 -12 3 -15 5 -3 9 1 9 9 0 17 -3 19 -12 6z"/>
<path d="M3279 3648 c15 -21 31 -23 31 -6 0 6 -3 8 -7 5 -3 -4 -13 -1 -22 6
-14 11 -14 10 -2 -5z"/>
<path d="M3799 3658 c-5 -18 -6 -38 -1 -34 7 8 12 36 6 36 -2 0 -4 -1 -5 -2z"/>
<path d="M3032 3639 c-19 -7 -23 -29 -6 -29 3 0 2 5 -1 10 -3 6 1 10 9 10 8 0
18 5 21 10 7 12 7 12 -23 -1z"/>
<path d="M3130 3640 c0 -5 5 -10 10 -10 6 0 10 5 10 10 0 6 -4 10 -10 10 -5 0
-10 -4 -10 -10z"/>
<path d="M3200 3640 c-8 -5 -10 -10 -5 -10 6 0 17 5 25 10 8 5 11 10 5 10 -5
0 -17 -5 -25 -10z"/>
<path d="M3350 3645 c0 -5 5 -17 10 -25 5 -8 10 -10 10 -5 0 6 -5 17 -10 25
-5 8 -10 11 -10 5z"/>
<path d="M3384 3639 c-5 -8 -3 -9 6 -4 7 4 16 2 22 -6 8 -12 9 -12 6 0 -6 20
-24 25 -34 10z"/>
<path d="M3712 3638 c2 -6 10 -13 16 -14 7 -1 8 0 2 3 -5 2 -8 9 -4 14 3 5 0
9 -6 9 -7 0 -10 -5 -8 -12z"/>
<path d="M4014 3635 c1 -8 6 -18 11 -22 4 -4 5 -2 1 5 -4 6 -2 12 4 12 6 0 8
5 5 10 -9 15 -24 12 -21 -5z"/>
<path d="M4073 3635 c0 -8 4 -12 9 -9 5 3 6 10 3 15 -9 13 -12 11 -12 -6z"/>
<path d="M3890 3631 c0 -6 4 -13 10 -16 6 -3 7 1 4 9 -7 18 -14 21 -14 7z"/>
<path d="M2955 3621 c-3 -5 -2 -12 3 -15 5 -3 9 1 9 9 0 17 -3 19 -12 6z"/>
<path d="M3055 3619 c-5 -8 -4 -10 3 -5 13 8 16 -4 4 -19 -11 -15 -46 -19 -36
-4 4 8 3 10 -5 5 -16 -11 -4 -25 20 -23 25 2 45 35 31 49 -6 6 -12 5 -17 -3z"/>
<path d="M3215 3619 c-6 -8 -4 -10 5 -4 10 6 12 4 7 -9 -4 -10 -7 -20 -7 -23
0 -3 -7 0 -15 7 -11 9 -19 10 -26 3 -8 -8 -7 -13 2 -18 8 -5 10 -4 5 3 -9 15
6 16 21 1 8 -8 14 -5 23 11 13 24 -1 52 -15 29z"/>
<path d="M3430 3621 c0 -10 29 -36 34 -30 1 2 -6 12 -16 22 -10 9 -18 13 -18
8z"/>
<path d="M3510 3627 c0 -4 7 -18 15 -31 11 -17 22 -22 37 -18 16 4 19 2 13 -8
-5 -9 -4 -11 4 -6 16 10 3 28 -17 24 -10 -2 -25 7 -34 22 -10 14 -18 21 -18
17z"/>
<path d="M3630 3620 c0 -5 5 -10 10 -10 6 0 10 5 10 10 0 6 -4 10 -10 10 -5 0
-10 -4 -10 -10z"/>
<path d="M3676 3615 c-17 -13 -18 -15 -3 -15 9 0 17 5 17 11 0 5 5 7 12 3 7
-4 8 -3 4 4 -9 14 -7 15 -30 -3z"/>
<path d="M3758 3623 c7 -3 16 -2 19 1 4 3 -2 6 -13 5 -11 0 -14 -3 -6 -6z"/>
<path d="M3828 3623 c7 -3 16 -2 19 1 4 3 -2 6 -13 5 -11 0 -14 -3 -6 -6z"/>
<path d="M3990 3625 c0 -5 10 -21 21 -35 13 -17 17 -18 10 -5 -17 33 -31 51
-31 40z"/>
<path d="M2981 3613 c-1 -17 16 -25 25 -12 4 7 3 9 -4 5 -5 -3 -13 0 -15 6 -4
9 -6 10 -6 1z"/>
<path d="M3107 3607 c-3 -8 3 -14 16 -15 12 0 17 2 12 6 -6 4 -13 11 -16 15
-4 4 -9 2 -12 -6z"/>
<path d="M3155 3610 c3 -5 8 -10 11 -10 2 0 4 5 4 10 0 6 -5 10 -11 10 -5 0
-7 -4 -4 -10z"/>
<path d="M3320 3614 c0 -6 7 -19 16 -30 14 -18 14 -18 3 6 -14 31 -19 36 -19
24z"/>
<path d="M3376 3605 c-3 -8 -1 -15 4 -15 6 0 10 7 10 15 0 8 -2 15 -4 15 -2 0
-6 -7 -10 -15z"/>
<path d="M3857 3599 c-3 -12 0 -22 9 -26 8 -3 12 -8 10 -12 -3 -4 5 -8 17 -8
20 -2 20 -1 -4 15 -15 10 -23 24 -21 35 5 24 -5 21 -11 -4z"/>
<path d="M3410 3600 c0 -5 5 -10 11 -10 5 0 7 5 4 10 -3 6 -8 10 -11 10 -2 0
-4 -4 -4 -10z"/>
<path d="M3485 3600 c3 -5 8 -10 11 -10 2 0 4 5 4 10 0 6 -5 10 -11 10 -5 0
-7 -4 -4 -10z"/>
<path d="M3580 3606 c0 -2 7 -9 15 -16 9 -7 15 -8 15 -2 0 5 -7 12 -15 16 -8
3 -15 4 -15 2z"/>
<path d="M3730 3595 c0 -8 2 -15 4 -15 2 0 6 7 10 15 3 8 1 15 -4 15 -6 0 -10
-7 -10 -15z"/>
<path d="M3784 3598 c10 -6 22 -6 26 -2 5 5 -3 10 -18 11 -22 1 -24 0 -8 -9z"/>
<path d="M3926 3598 c3 -4 9 -8 15 -8 5 0 9 4 9 8 0 5 -7 9 -15 9 -8 0 -12 -4
-9 -9z"/>
<path d="M4051 3607 c2 -1 13 -9 24 -17 19 -14 19 -14 6 3 -7 9 -18 17 -24 17
-6 0 -8 -1 -6 -3z"/>
<path d="M3268 3593 c6 -2 18 -2 25 0 6 3 1 5 -13 5 -14 0 -19 -2 -12 -5z"/>
<path d="M3635 3590 c-3 -5 -1 -10 4 -10 6 0 11 5 11 10 0 6 -2 10 -4 10 -3 0
-8 -4 -11 -10z"/>
<path d="M3895 3590 c-7 -11 22 -26 32 -16 4 3 -1 6 -11 6 -9 0 -14 5 -11 10
3 6 4 10 1 10 -3 0 -8 -5 -11 -10z"/>
<path d="M4030 3596 c0 -3 9 -10 20 -16 11 -6 20 -8 20 -6 0 3 -9 10 -20 16
-11 6 -20 8 -20 6z"/>
<path d="M2970 3588 c0 -2 9 -11 20 -21 11 -9 20 -13 20 -7 0 5 -9 14 -20 20
-11 6 -20 9 -20 8z"/>
<path d="M3077 3575 c-7 -18 6 -27 27 -19 12 5 15 2 10 -10 -3 -9 -2 -16 4
-16 6 0 9 8 7 18 -1 11 -10 16 -23 15 -15 -2 -20 2 -16 12 4 8 4 15 1 15 -3 0
-7 -7 -10 -15z"/>
<path d="M3151 3585 c1 -19 18 -51 18 -35 0 8 -4 22 -9 30 -5 8 -9 11 -9 5z"/>
<path d="M3239 3583 c0 -5 -2 -16 -4 -25 -3 -15 0 -16 18 -7 32 17 35 23 10
15 -18 -6 -22 -4 -17 8 3 9 3 16 0 16 -3 0 -6 -3 -7 -7z"/>
<path d="M3311 3585 c1 -19 18 -51 18 -35 0 8 -4 22 -9 30 -5 8 -9 11 -9 5z"/>
<path d="M3514 3566 c3 -16 8 -31 11 -35 3 -3 4 7 1 23 -3 16 -8 31 -11 35 -3
3 -4 -7 -1 -23z"/>
<path d="M3750 3580 c0 -5 5 -10 10 -10 6 0 10 5 10 10 0 6 -4 10 -10 10 -5 0
-10 -4 -10 -10z"/>
<path d="M3814 3575 c-3 -8 -3 -18 0 -24 4 -5 -3 -9 -14 -8 -15 1 -19 6 -15
22 5 18 5 18 -5 2 -14 -22 -6 -35 21 -33 17 1 23 8 23 29 2 30 -2 34 -10 12z"/>
<path d="M3994 3566 c3 -16 8 -31 11 -35 3 -3 4 7 1 23 -3 16 -8 31 -11 35 -3
3 -4 -7 -1 -23z"/>
<path d="M2950 3571 c0 -9 30 -24 36 -18 2 1 -6 8 -16 15 -11 7 -20 8 -20 3z"/>
<path d="M3388 3573 c6 -2 18 -2 25 0 6 3 1 5 -13 5 -14 0 -19 -2 -12 -5z"/>
<path d="M3435 3570 c3 -5 8 -10 11 -10 2 0 4 5 4 10 0 6 -5 10 -11 10 -5 0
-7 -4 -4 -10z"/>
<path d="M3953 3560 c1 -14 8 -24 15 -22 6 1 12 -7 12 -19 0 -11 -5 -17 -10
-14 -6 3 -13 -1 -16 -9 -5 -14 -8 -14 -29 0 -26 17 -39 6 -28 -22 3 -10 2 -15
-3 -12 -5 4 -17 0 -27 -7 -14 -10 -15 -14 -3 -18 20 -8 48 26 40 48 -8 20 5
15 38 -13 16 -14 17 -16 1 -27 -11 -8 -13 -17 -7 -26 5 -8 9 -16 9 -19 1 -3 5
-16 9 -28 6 -18 3 -27 -13 -38 -11 -8 -18 -20 -15 -28 3 -7 -2 -13 -11 -13 -9
0 -14 6 -11 14 3 7 3 20 0 28 -5 12 -9 13 -21 3 -12 -10 -14 -9 -13 3 4 26 0
39 -11 39 -8 0 -8 -4 -2 -12 5 -7 9 -28 7 -46 -1 -18 2 -35 7 -38 5 -3 6 3 2
12 -8 22 13 10 26 -15 9 -15 6 -18 -19 -18 -16 0 -29 3 -28 6 2 20 -3 31 -12
26 -5 -3 -10 -1 -10 4 0 6 5 11 10 11 6 0 10 5 10 11 0 8 -5 7 -15 -1 -10 -8
-13 -20 -9 -34 6 -18 5 -19 -9 -7 -13 10 -14 18 -6 33 6 10 17 22 25 25 8 3
14 10 14 16 0 6 -3 8 -6 4 -3 -3 -17 4 -30 16 -27 24 -25 34 4 18 16 -9 24 -7
36 5 9 8 16 11 16 7 0 -5 7 -18 16 -29 11 -13 10 -8 -3 16 -12 23 -27 35 -41
36 -12 1 -22 -3 -22 -8 0 -5 10 -6 22 -2 20 6 21 5 10 -9 -11 -13 -18 -14 -38
-5 -13 6 -24 15 -24 20 0 4 -5 8 -11 8 -8 0 -7 -6 2 -17 12 -15 12 -16 -6 -9
-11 4 -2 -8 20 -27 l39 -34 -32 0 c-21 0 -29 4 -24 11 9 12 -32 58 -42 48 -3
-3 -6 0 -6 6 0 7 -5 12 -11 12 -5 0 -7 -4 -4 -10 3 -5 2 -10 -4 -10 -5 0 -12
5 -14 10 -3 6 -4 5 -3 -2 1 -7 12 -14 24 -14 24 -1 52 -21 52 -36 0 -5 -10 -2
-22 6 -12 9 -27 16 -33 16 -5 0 -3 -5 5 -10 13 -8 13 -10 -1 -10 -9 0 -20 7
-23 16 -3 8 -10 13 -15 10 -5 -3 -11 1 -14 8 -3 8 -15 14 -25 13 -20 -1 -20
-27 0 -27 5 0 6 5 3 10 -3 6 -2 10 3 10 6 0 13 -7 16 -16 3 -8 10 -12 16 -9 5
3 10 2 10 -4 0 -15 -18 -23 -25 -11 -3 5 -11 10 -18 10 -6 0 -2 -6 9 -14 14
-11 16 -17 7 -27 -6 -6 -9 -17 -7 -23 3 -9 -6 -12 -28 -11 -17 1 -34 7 -36 15
-3 8 0 10 9 5 11 -6 12 -5 2 6 -17 18 -16 34 1 20 10 -9 15 -8 20 4 3 8 3 21
0 28 -5 15 -44 20 -44 6 0 -5 3 -8 8 -8 18 3 32 -2 32 -12 0 -6 -6 -9 -14 -6
-8 3 -20 -1 -27 -9 -12 -14 -14 -14 -26 2 -7 10 -13 13 -13 7 0 -7 5 -15 10
-18 6 -4 7 -11 4 -17 -12 -19 -30 32 -28 77 l2 44 -21 -20 c-21 -19 -21 -21
-4 -33 18 -14 24 -32 7 -21 -15 9 -12 -4 5 -21 20 -20 19 -33 -2 -29 -10 2
-20 4 -23 4 -3 1 2 6 10 12 13 9 12 10 -3 5 -14 -4 -16 -1 -11 18 4 17 -1 27
-18 37 -13 8 -30 15 -38 14 -8 0 -17 2 -20 6 -3 4 -11 1 -18 -7 -11 -12 -9
-13 10 -11 15 3 29 -5 43 -22 26 -33 28 -70 3 -68 -21 1 -23 8 -6 25 9 9 7 16
-7 32 -10 11 -22 20 -28 20 -5 0 0 -8 12 -17 21 -17 21 -19 5 -42 l-17 -24 -9
22 c-4 13 -15 21 -24 19 -9 -2 -19 2 -21 9 -5 15 33 9 53 -8 9 -7 14 -8 14 -1
0 6 -9 14 -20 17 -11 4 -18 10 -15 15 3 4 -2 10 -10 13 -9 4 -12 1 -9 -8 4
-10 -2 -12 -24 -9 -17 3 -33 0 -37 -6 -3 -5 -11 -10 -18 -10 -8 0 -8 3 1 12 7
7 12 16 12 21 0 5 -9 -1 -19 -14 -11 -13 -22 -21 -26 -17 -8 8 30 50 60 66 15
8 16 11 4 12 -8 0 -20 -5 -27 -12 -7 -7 -12 -9 -12 -5 0 4 -13 1 -30 -8 -16
-9 -30 -20 -30 -26 0 -6 7 -3 16 5 22 23 40 20 20 -3 -31 -34 4 -50 57 -26 13
5 22 2 32 -11 24 -31 14 -49 -27 -49 -20 0 -40 -4 -44 -8 -4 -4 -1 -7 7 -7 11
0 11 -2 -1 -10 -19 -12 -33 -13 -25 -1 3 5 -6 22 -21 36 -14 14 -23 29 -19 33
3 4 14 -4 24 -17 14 -19 22 -21 37 -14 10 6 25 8 33 5 8 -3 11 0 7 7 -4 6 -2
11 3 11 6 0 11 -4 11 -10 0 -5 5 -10 10 -10 6 0 5 8 -2 19 -10 17 -14 18 -31
6 -11 -7 -26 -11 -35 -8 -10 4 -13 2 -8 -5 4 -7 3 -12 -1 -12 -5 0 -15 11 -23
25 l-15 25 -43 -40 c-32 -30 -47 -38 -60 -32 -9 5 -28 7 -42 6 -14 -1 -30 5
-37 13 -10 13 -12 13 -10 -5 0 -11 4 -19 8 -16 4 2 10 -5 14 -16 4 -11 11 -17
17 -14 6 4 19 -4 29 -17 l19 -24 19 25 c11 14 23 21 27 17 4 -4 16 7 26 24 11
17 22 29 25 25 3 -3 -5 -21 -18 -40 -13 -20 -26 -30 -30 -24 -4 7 -9 7 -13 -1
-7 -11 4 -15 39 -11 20 2 20 1 0 -13 -10 -8 -26 -12 -34 -9 -19 7 -63 7 -82 0
-8 -3 -24 1 -34 9 -20 15 -20 15 1 10 26 -6 52 7 35 17 -6 4 -11 3 -11 -3 0
-23 -54 46 -55 70 -1 22 3 26 27 26 22 0 25 -3 17 -14 -8 -9 -8 -13 0 -13 6 0
11 5 11 10 0 6 5 10 11 10 5 0 7 -5 3 -11 -4 -7 -1 -10 7 -7 8 3 22 1 32 -4
14 -7 24 -4 42 16 13 14 20 28 16 30 -4 3 -14 -6 -21 -19 -7 -14 -17 -25 -22
-25 -5 0 -6 5 -2 11 4 7 1 10 -7 7 -16 -6 -74 20 -65 29 3 3 13 2 23 -2 53
-24 88 -8 57 26 -20 23 -2 26 20 3 9 -8 16 -11 16 -5 0 9 -50 41 -65 41 -11 0
-4 -17 16 -39 12 -12 18 -25 14 -29 -4 -4 -15 4 -26 17 -10 13 -19 19 -19 14
0 -5 5 -14 12 -21 9 -9 9 -12 1 -12 -7 0 -14 4 -17 9 -3 4 -28 8 -56 8 -28 0
-53 -4 -56 -8 -3 -5 -10 -9 -17 -9 -8 0 -8 3 1 12 7 7 12 16 12 21 0 5 -9 -1
-20 -14 -21 -26 -26 -19 -10 11 6 11 23 26 38 34 17 10 21 15 11 16 -9 0 -22
-6 -29 -14 -6 -8 -17 -14 -23 -12 -7 1 -9 1 -5 -1 4 -2 4 -11 1 -19 -3 -7 -10
-11 -15 -8 -6 4 -5 -3 1 -15 7 -11 9 -21 5 -21 -3 0 -1 -6 5 -14 9 -11 9 -15
-1 -19 -9 -4 -9 -6 -1 -6 19 -1 27 20 12 30 -8 5 -9 9 -4 10 21 3 31 5 48 13
10 5 21 6 24 3 3 -4 -6 -11 -20 -18 -14 -6 -28 -21 -32 -33 -4 -11 -8 -24 -10
-28 -1 -5 -3 -11 -4 -15 -2 -5 -6 1 -11 12 -6 14 -8 4 -7 -32 1 -28 5 -49 10
-46 4 2 7 0 7 -5 0 -5 -3 -12 -7 -16 -11 -10 -11 -66 -1 -66 4 0 8 -5 8 -11 0
-5 -4 -8 -8 -5 -5 3 -8 -5 -7 -17 1 -12 -2 -30 -6 -39 -5 -9 -6 -19 -1 -22 9
-6 9 -67 -1 -83 -4 -6 -3 -14 3 -18 6 -4 8 -10 5 -15 -8 -13 27 -22 39 -9 8 9
8 10 0 6 -7 -4 -18 1 -25 10 -8 9 -9 14 -2 10 12 -8 12 10 -1 31 -4 8 -1 24
10 40 17 26 17 27 -2 12 -17 -14 -18 -13 -7 1 10 12 10 18 1 27 -9 9 -9 15 0
24 9 9 15 9 25 -1 10 -10 9 -11 -5 -6 -20 8 -25 -10 -6 -21 7 -5 8 -3 3 6 -5
8 -4 11 3 7 11 -7 11 -25 0 -43 -4 -6 -1 -11 7 -11 8 0 11 5 8 10 -4 6 -1 7 7
2 8 -5 11 -4 7 1 -3 6 3 10 13 11 14 1 19 -4 17 -20 -1 -16 4 -22 20 -23 13
-1 20 3 16 9 -3 6 -1 7 6 3 6 -4 9 -12 6 -17 -4 -5 -1 -9 4 -9 15 0 14 13 -1
30 -11 12 -10 12 4 1 17 -13 18 -46 3 -71 -3 -6 0 -7 9 -4 9 3 16 1 16 -6 0
-6 5 -8 11 -4 8 5 8 9 -1 14 -9 5 -9 9 -1 14 6 4 11 2 11 -5 0 -19 10 -4 15
22 3 13 -3 32 -13 43 -17 21 -17 21 4 3 11 -9 24 -14 28 -10 4 4 4 -1 0 -12
-7 -20 -6 -20 10 0 10 11 15 15 12 10 -2 -6 4 -11 14 -11 10 0 17 3 15 7 -2 3
14 5 36 5 23 -1 44 -8 49 -16 5 -8 10 -10 10 -5 0 6 -3 15 -7 21 -5 5 -2 4 5
-2 7 -6 15 -20 16 -30 3 -20 41 -27 63 -11 7 5 18 5 24 1 8 -5 9 -3 4 6 -5 9
-4 11 3 6 7 -4 10 -2 9 6 -2 7 -2 10 0 5 3 -4 9 -4 14 -1 6 3 2 12 -8 21 -10
8 -12 12 -6 8 9 -4 11 -1 6 11 -5 14 -3 16 11 11 9 -4 15 -3 11 2 -6 11 14 9
34 -3 10 -7 12 -6 6 4 -5 9 -4 11 4 6 6 -4 9 -12 6 -17 -3 -5 0 -6 8 -3 8 3
18 1 22 -5 3 -6 0 -9 -8 -5 -8 3 -21 -3 -28 -14 -8 -11 -18 -20 -22 -20 -5 0
-12 -4 -15 -8 -4 -4 0 -4 8 1 12 6 13 5 3 -6 -7 -7 -13 -18 -13 -23 0 -6 7 0
16 12 8 12 21 22 27 22 7 0 4 -6 -5 -14 -10 -7 -15 -16 -11 -19 3 -4 1 -7 -6
-7 -7 0 -9 -5 -5 -11 4 -8 12 -2 21 15 15 28 23 32 39 16 6 -6 15 -6 24 0 8 5
10 10 4 10 -6 0 -11 7 -11 15 0 8 4 15 9 15 4 0 8 -7 8 -16 0 -8 5 -12 10 -9
6 4 8 10 5 15 -3 5 -1 11 4 14 5 4 12 2 16 -4 4 -6 11 -8 16 -5 5 4 9 1 9 -4
0 -13 -12 -14 -26 -3 -5 4 -4 1 3 -7 10 -12 15 -12 28 -1 14 11 13 14 -2 27
-10 8 -11 11 -3 7 13 -7 13 -5 2 8 -11 14 -11 16 0 14 7 -1 19 -6 27 -10 9 -6
12 -5 8 1 -3 5 0 10 8 10 18 0 20 -13 3 -20 -10 -4 -10 -6 0 -6 7 -1 15 6 18
14 5 12 9 12 23 -3 9 -10 12 -12 7 -5 -6 9 -5 18 3 26 10 9 11 8 5 -7 -6 -16
-4 -18 10 -13 11 5 15 3 10 -5 -4 -7 -3 -8 4 -4 19 11 14 29 -5 21 -15 -5 -16
-4 -5 6 20 21 39 -5 21 -28 -13 -17 -13 -17 5 -3 11 8 17 10 13 4 -4 -7 2 -10
18 -8 17 1 23 -2 18 -9 -5 -8 -2 -8 9 0 8 7 19 9 23 5 5 -4 5 -1 0 7 -6 10 -4
12 5 6 8 -5 11 -4 6 3 -7 12 12 11 33 -2 11 -7 12 -6 6 5 -7 11 -6 12 7 2 8
-7 17 -11 20 -8 2 3 5 -2 6 -10 1 -8 3 -22 4 -30 1 -15 12 -12 39 12 14 12 20
10 46 -14 27 -27 30 -27 46 -10 9 9 12 17 6 17 -6 0 -7 5 -2 13 10 17 11 67 0
67 -4 0 -5 6 0 13 12 19 12 36 1 43 -6 4 -5 10 3 15 12 7 12 9 0 9 -10 0 -11
4 -3 13 6 6 12 14 13 17 2 3 -4 16 -14 30 -20 29 -22 41 -4 36 6 -1 9 -1 4 1
-4 3 -4 10 0 16 12 19 12 38 0 30 -7 -4 -8 0 -4 11 4 10 3 15 -3 11 -6 -3 -10
-2 -10 4 0 5 8 15 18 20 9 6 12 11 5 11 -6 0 -15 -5 -19 -11 -4 -8 -9 -7 -15
2 -7 10 -11 11 -17 2 -5 -8 -12 -8 -27 3 -19 14 -17 15 17 11 23 -3 45 1 55
10 17 13 17 13 -2 5 -21 -9 -73 -7 -83 3 -6 5 41 55 52 55 3 0 5 -10 3 -21 -1
-12 4 -23 11 -25 7 -1 8 0 2 3 -17 8 -11 26 7 19 15 -6 15 -4 -2 14 -17 19
-10 28 11 13 5 -5 1 0 -9 10 -25 22 -27 22 -71 -8 -20 -14 -36 -19 -34 -12 1
6 -3 22 -10 35 -8 14 -9 22 -2 22 6 0 13 -7 16 -15 4 -8 11 -15 17 -15 5 0 3
8 -6 18 -15 16 -15 19 3 30 11 7 20 18 19 25 0 9 -2 9 -6 -1 -2 -6 -10 -9 -15
-6 -7 4 -8 2 -4 -4 4 -7 3 -12 -3 -12 -5 0 -12 4 -15 8 -6 10 8 34 20 33 5 -1
9 8 9 19 0 11 -4 20 -10 19 -5 0 -13 10 -17 23 -7 22 -7 22 -5 -2z m-433 -160
c0 -5 -4 -10 -10 -10 -5 0 -10 5 -10 10 0 6 5 10 10 10 6 0 10 -4 10 -10z
m495 -21 c-21 -19 -34 -38 -31 -46 4 -9 0 -13 -11 -11 -9 2 -17 -5 -19 -15 -3
-24 -24 -48 -35 -41 -14 8 -11 24 4 22 6 -2 12 5 12 15 0 10 8 23 18 28 9 6
17 15 17 20 0 13 18 31 45 47 36 21 36 12 0 -19z m-535 -16 c0 -9 -6 -7 -20 4
-11 10 -20 21 -20 25 0 5 9 3 20 -4 11 -7 20 -18 20 -25z m-430 -13 c0 -5 -4
-10 -10 -10 -5 0 -10 5 -10 10 0 6 5 10 10 10 6 0 10 -4 10 -10z m713 -9 c17
-13 14 -31 -3 -31 -5 0 -7 8 -4 18 4 12 3 14 -4 4 -5 -8 -8 -25 -6 -38 1 -15
-2 -24 -9 -21 -13 4 -17 46 -5 53 4 3 8 10 8 17 0 6 -7 1 -16 -11 -8 -12 -13
-26 -10 -31 3 -5 -1 -14 -9 -21 -11 -9 -13 -7 -11 12 1 13 6 29 10 36 4 7 2
12 -3 12 -11 0 -15 -14 -11 -39 1 -12 -1 -13 -14 -2 -13 11 -13 16 -1 34 16
25 63 30 88 8z m47 -9 c0 -4 -5 -13 -12 -20 -9 -9 -8 -16 5 -30 21 -23 22 -33
2 -26 -8 4 -12 10 -9 15 3 5 -1 6 -9 3 -15 -6 -17 17 -3 49 8 17 26 24 26 9z
m-804 -24 c-1 -13 1 -28 6 -34 10 -13 -2 -55 -13 -48 -5 3 -7 9 -4 14 3 4 -2
10 -10 14 -8 3 -18 0 -22 -7 -10 -16 -14 -41 -5 -32 4 4 8 11 8 16 3 22 5 23
13 10 7 -10 4 -19 -7 -29 -9 -7 -12 -11 -5 -8 6 4 14 2 18 -4 3 -5 1 -10 -4
-10 -6 0 -10 -6 -8 -12 1 -7 -4 -12 -10 -10 -7 1 -13 -2 -13 -8 0 -5 4 -10 9
-10 6 0 13 5 16 10 3 6 14 10 23 10 15 -1 15 -2 -1 -11 -9 -6 -15 -15 -11 -21
4 -6 -2 -8 -17 -4 -19 6 -21 5 -8 -3 10 -6 15 -21 13 -36 -2 -21 0 -24 11 -15
7 6 11 21 7 33 -3 12 -1 18 4 14 12 -11 14 -67 2 -67 -5 0 -3 -6 4 -14 11 -11
15 -11 25 3 11 14 15 13 35 -9 13 -14 20 -21 16 -16 -11 14 -10 26 3 26 5 0 8
-4 4 -9 -3 -5 0 -13 6 -17 8 -5 9 -3 4 7 -7 11 -6 12 6 3 8 -6 22 -10 32 -9 9
2 17 0 17 -4 0 -4 8 -8 17 -8 16 0 16 1 1 11 -15 9 -13 14 15 39 18 16 25 24
16 18 -22 -15 -61 -23 -54 -10 4 5 11 7 16 4 5 -4 9 -1 9 4 0 6 4 10 9 9 5 -2
16 6 24 16 14 19 14 19 12 0 0 -11 -4 -24 -7 -29 -4 -6 7 -28 23 -49 16 -22
29 -35 29 -29 0 6 -7 16 -15 23 -18 15 -20 30 -3 30 6 0 8 -3 5 -7 -9 -9 13
-34 24 -27 5 3 6 -3 2 -13 -4 -12 1 -10 15 7 12 14 21 19 22 12 0 -7 5 -10 11
-6 8 4 7 9 -2 16 -11 7 -10 8 4 4 12 -4 16 -2 11 6 -5 7 -3 8 6 3 9 -5 11 -4
6 3 -5 8 -1 10 9 6 10 -4 14 -13 11 -23 -4 -9 4 -3 15 12 16 21 24 25 30 16 6
-10 11 -7 18 11 9 23 11 23 15 3 1 -5 7 -17 15 -28 7 -12 11 -13 8 -4 -3 9 1
16 8 16 7 0 11 -7 8 -16 -4 -12 -3 -13 5 -3 7 11 10 11 15 -2 8 -20 46 -17 40
4 -4 12 -3 12 5 1 7 -9 12 -10 16 -2 4 6 2 11 -4 11 -6 0 -8 5 -5 11 5 6 12 4
22 -8 8 -10 12 -13 9 -7 -3 7 2 18 12 25 16 13 16 13 2 -6 -14 -19 -14 -19 3
-6 13 10 17 11 15 2 -2 -7 8 -20 21 -29 23 -16 24 -16 13 4 -11 21 -7 34 9 34
4 0 6 -8 4 -18 -2 -11 3 -19 11 -19 15 0 19 13 7 20 -5 2 -2 2 5 0 7 -1 11 1
8 5 -2 4 -1 14 3 21 6 10 10 9 14 -4 5 -11 3 -14 -6 -10 -6 4 -4 0 5 -8 10 -8
15 -17 12 -20 -15 -15 28 1 46 18 22 20 28 8 8 -14 -11 -11 -10 -12 1 -6 10 6
12 4 6 -5 -5 -9 -4 -11 4 -6 6 4 9 12 6 17 -4 5 -1 9 5 9 7 0 9 -7 6 -16 -4
-10 -2 -13 7 -8 7 5 6 0 -3 -12 -14 -18 -14 -18 2 -5 14 10 15 18 7 35 -9 18
-8 19 3 5 7 -9 21 -15 31 -13 10 1 14 -2 11 -8 -4 -7 -2 -8 5 -4 6 4 9 12 6
17 -4 5 -1 9 5 9 7 0 10 -6 7 -13 -3 -9 4 -13 27 -12 17 0 36 4 42 8 13 8 38
-16 27 -26 -3 -4 -4 -7 -1 -7 3 0 13 10 24 22 13 16 14 19 2 10 -11 -9 -18
-10 -23 -2 -4 6 -1 9 7 8 7 -2 12 2 11 9 -2 7 3 10 11 7 8 -3 17 0 21 5 3 6
10 9 14 7 4 -3 8 1 8 9 0 11 -4 12 -13 4 -7 -6 -19 -7 -25 -3 -8 4 -9 3 -5 -4
5 -8 2 -10 -8 -6 -9 3 -13 10 -10 16 3 5 12 7 19 4 8 -3 19 2 25 10 7 8 9 14
5 14 -4 0 -3 6 3 13 10 12 12 17 12 39 0 15 15 0 15 -15 0 -7 -6 -17 -15 -24
-11 -9 -12 -12 -2 -13 7 0 11 -4 7 -9 -3 -5 -1 -12 4 -15 7 -5 8 -41 1 -41 -1
0 -3 -12 -5 -28 -2 -15 0 -25 5 -22 7 4 6 -24 0 -32 -2 -3 -6 -14 -9 -30 -1
-5 -11 3 -21 16 -11 13 -20 20 -20 15 0 -4 -5 -3 -12 4 -9 9 -16 8 -30 -5 -20
-18 -28 -14 -32 14 -2 10 -8 19 -14 19 -7 1 -13 3 -14 4 -10 9 -60 5 -69 -6
-14 -17 -49 -9 -66 16 -9 12 -22 18 -36 16 -12 -3 -22 -5 -22 -6 0 -1 -21 -3
-47 -4 -27 -1 -48 2 -48 6 0 4 -4 8 -9 8 -5 0 -7 -14 -6 -30 2 -23 0 -28 -10
-20 -6 5 -15 7 -19 3 -4 -4 -15 -8 -24 -8 -11 0 -17 -8 -16 -22 1 -21 0 -21
-22 -6 -24 16 -23 39 2 29 26 -10 24 13 -3 32 -29 19 -77 22 -94 5 -5 -5 -12
-20 -14 -33 -3 -13 -13 -29 -22 -34 -21 -12 -64 -16 -58 -6 8 13 -36 61 -48
53 -23 -14 -131 -10 -150 5 -21 19 -35 8 -17 -14 13 -14 23 -61 12 -49 -3 3
-11 0 -18 -6 -10 -8 -12 -6 -9 11 2 13 -4 33 -14 45 -17 22 -18 22 -29 4 -18
-28 -32 -23 -27 11 3 29 -4 38 -19 23 -15 -15 -34 -11 -31 7 4 22 -19 45 -36
35 -8 -6 -8 -2 0 14 7 12 9 26 6 31 -12 20 -14 54 -4 67 8 9 8 17 1 26 -13 15
-13 27 1 52 6 11 11 24 12 29 0 5 6 11 13 14 7 2 10 -2 6 -11 -3 -8 2 -17 12
-21 14 -5 15 -4 4 9 -7 8 -9 15 -5 15 4 0 2 6 -4 13 -6 8 -8 17 -4 20 13 13
20 7 19 -15z m187 -12 c-10 -13 -28 -27 -40 -31 -13 -3 -23 -12 -23 -20 0 -21
-13 -19 -28 5 -7 11 -19 20 -28 20 -8 0 -13 4 -10 9 6 9 54 7 63 -3 8 -8 46
14 62 36 7 11 15 17 18 14 3 -2 -3 -16 -14 -30z m194 9 c-2 -14 -14 -33 -27
-42 -18 -13 -22 -13 -18 -2 30 69 52 91 45 44z m98 -21 c-11 -8 -26 -11 -35
-8 -8 4 -23 6 -32 6 -10 0 -20 3 -23 7 -6 10 48 9 55 0 3 -4 14 -1 24 7 11 8
14 14 8 14 -7 0 -12 5 -12 12 0 8 7 5 18 -5 16 -17 16 -19 -3 -33z m90 26
c-10 -11 -20 -18 -23 -15 -7 6 18 35 31 35 5 0 2 -9 -8 -20z m325 10 c0 -5 -4
-10 -10 -10 -5 0 -10 5 -10 10 0 6 5 10 10 10 6 0 10 -4 10 -10z m120 -41 c0
-6 -6 -6 -19 1 -26 13 -40 13 -21 -1 12 -9 11 -10 -5 -5 -19 6 -19 5 -3 -7 10
-8 15 -17 11 -20 -3 -4 -1 -12 5 -20 7 -8 7 -18 2 -27 -6 -8 -10 -13 -11 -10
-4 27 -8 41 -14 60 -7 21 -9 21 -17 7 -5 -10 -6 -21 -3 -26 3 -6 -4 -9 -15 -8
-11 1 -20 5 -20 10 0 4 -4 6 -9 3 -5 -4 -11 -3 -14 1 -2 5 -2 2 0 -5 2 -9 -3
-11 -16 -7 -26 8 -35 -10 -15 -29 8 -9 11 -16 5 -16 -5 0 -12 4 -16 10 -3 5
-13 6 -23 3 -14 -6 -15 -4 -4 9 7 8 10 22 7 30 -3 7 2 22 11 33 8 11 13 15 10
9 -3 -7 1 -17 9 -24 10 -8 15 -9 15 -2 0 6 13 9 30 7 23 -3 34 3 50 22 11 14
17 30 14 35 -4 5 8 2 25 -6 17 -9 31 -21 31 -27z m-475 13 c4 -11 8 -12 20 -2
10 8 19 9 28 3 6 -5 29 -9 49 -7 21 1 35 -2 32 -7 -3 -5 0 -9 5 -9 6 0 11 -5
11 -11 0 -5 -4 -7 -10 -4 -9 6 -14 -8 -11 -27 0 -5 -3 -8 -7 -8 -16 0 -21 13
-12 31 7 12 6 20 -2 25 -7 4 -8 3 -4 -4 9 -16 -7 -15 -22 0 -7 7 -12 8 -12 2
0 -5 -9 -10 -19 -11 -14 -1 -18 3 -14 15 4 14 3 14 -5 3 -9 -12 -13 -12 -26
-2 -13 11 -16 11 -16 0 0 -12 -2 -12 -9 0 -7 11 -10 9 -15 -7 -4 -13 -13 -19
-21 -15 -8 3 -18 -2 -21 -11 -3 -9 -10 -13 -15 -10 -5 3 -7 9 -5 13 3 4 -11 7
-30 6 -23 -2 -34 1 -31 9 4 12 41 13 69 1 11 -4 25 1 40 17 27 27 45 31 53 10z
m-300 -12 c3 -5 0 -10 -8 -10 -8 0 -18 -8 -22 -17 -5 -15 -4 -16 6 -5 18 17
27 15 40 -9 9 -17 8 -20 -3 -16 -7 2 -12 10 -10 17 2 11 0 11 -11 2 -8 -7 -22
-10 -30 -6 -15 5 -15 8 1 30 19 26 28 29 37 14z m90 -19 c1 -12 7 -27 12 -32
8 -8 11 -7 10 2 -1 8 3 15 8 16 6 2 10 -7 10 -20 0 -14 5 -21 16 -19 9 1 16
-5 16 -13 0 -19 -6 -19 -41 4 -20 14 -35 17 -46 11 -10 -6 -21 -5 -27 1 -6 6
-15 4 -24 -8 -13 -16 -12 -17 4 -4 21 16 23 -1 2 -19 -12 -10 -16 -8 -24 11
-5 13 -10 18 -10 10 -1 -10 -4 -11 -14 -2 -11 8 -18 6 -31 -8 -17 -19 -17 -20
6 -32 32 -18 59 -18 65 -2 5 12 7 12 14 1 14 -22 10 -27 -21 -23 -16 2 -30 -1
-30 -6 0 -6 5 -7 12 -3 8 5 9 0 6 -14 -4 -12 -2 -25 3 -28 5 -3 6 -11 2 -17
-4 -7 2 -5 12 3 10 8 16 10 12 3 -6 -10 11 -11 33 -3 3 1 8 2 13 1 4 0 7 4 7
10 0 8 5 7 15 -1 9 -7 18 -10 22 -6 3 3 0 6 -8 6 -12 0 -11 2 1 10 13 9 13 11
0 20 -8 5 -10 10 -5 10 18 0 34 -22 28 -39 -4 -12 -1 -10 11 4 10 11 14 13 10
5 -16 -34 -26 -40 -45 -29 -15 8 -25 5 -45 -15 -28 -25 -59 -28 -59 -5 0 8 -7
15 -15 15 -8 1 -19 2 -24 3 -5 0 -4 7 2 14 9 11 10 24 2 57 0 3 -9 -4 -18 -15
-10 -11 -24 -21 -32 -23 -22 -5 -41 -23 -34 -33 3 -5 11 -6 17 -2 8 4 7 1 -1
-9 -15 -18 -33 -18 -56 1 -9 8 -19 11 -23 8 -3 -4 -12 -2 -20 4 -9 9 -17 8
-27 0 -12 -10 -14 -9 -12 6 2 11 11 17 27 17 14 0 23 -6 21 -13 -1 -7 2 -10 6
-7 5 3 8 17 7 31 -2 14 2 28 7 32 7 4 9 -2 6 -15 -4 -12 -2 -25 3 -28 5 -3 7
-10 4 -15 -10 -15 2 -10 16 8 8 9 9 14 3 10 -12 -7 -12 29 1 40 4 5 5 3 2 -3
-4 -6 0 -20 8 -30 14 -17 14 -17 9 -1 -4 10 -3 17 2 16 20 -3 34 2 34 12 0 8
-4 8 -14 0 -9 -7 -17 -8 -20 -3 -8 13 13 20 47 17 35 -4 34 -1 -5 24 -18 11
-27 21 -20 21 7 0 10 4 7 10 -3 6 1 7 9 4 9 -3 16 -2 16 3 0 16 46 33 58 21
16 -16 31 -1 24 24 -3 14 -2 19 7 14 6 -4 9 -11 6 -16 -6 -10 15 -19 33 -12 6
2 12 9 12 14 0 6 -6 5 -15 -2 -21 -17 -19 -1 3 24 17 21 17 21 -5 2 -21 -18
-22 -18 -20 3 2 29 40 22 42 -8z m727 0 c10 -19 13 -31 6 -33 -10 -4 -14 -21
-17 -66 -1 -8 -6 -10 -13 -6 -10 6 -9 3 0 -9 12 -14 11 -16 -7 -14 -14 1 -19
8 -18 22 1 11 -3 19 -10 18 -7 -2 -13 2 -13 7 0 13 23 13 37 -1 8 -8 13 -7 18
2 5 7 4 10 -1 7 -5 -4 -10 5 -10 18 -1 13 3 22 8 21 6 -1 13 5 15 13 3 12 2
12 -5 2 -12 -18 -35 9 -26 32 9 23 17 20 36 -13z m-313 3 c13 9 59 -13 66 -32
3 -8 0 -21 -6 -28 -6 -8 -8 -15 -3 -16 23 -4 30 -5 47 -13 21 -9 23 -30 2 -22
-8 4 -17 2 -20 -3 -4 -6 -12 -10 -18 -10 -7 0 -6 4 3 10 8 5 11 12 7 16 -3 4
-15 -4 -26 -17 -11 -13 -22 -21 -25 -18 -3 3 3 15 13 26 19 20 19 21 -5 32
-17 8 -31 8 -44 1 -25 -13 -27 -13 -27 5 0 9 6 14 14 11 9 -4 11 -1 7 6 -5 8
-1 9 12 4 10 -4 15 -4 11 0 -4 4 -2 13 4 21 9 9 8 13 0 13 -6 0 -11 -5 -11
-12 0 -6 -7 -3 -15 8 -15 19 -15 19 -30 -1 -8 -11 -21 -27 -30 -36 -14 -14
-14 -17 0 -29 8 -7 15 -17 15 -23 0 -16 -40 25 -41 42 0 11 -2 12 -6 3 -4 -10
-8 -10 -19 -1 -12 10 -12 14 -2 20 11 7 11 9 0 9 -7 0 -11 4 -8 8 3 5 -1 9 -9
9 -8 0 -13 -5 -12 -10 1 -5 -4 -12 -11 -14 -7 -3 -11 1 -10 8 2 7 -1 13 -7 14
-5 0 -17 4 -25 10 -13 8 -13 7 -1 -8 16 -20 1 -23 -18 -4 -10 10 -12 9 -9 -2
2 -7 -3 -16 -10 -18 -10 -4 -10 1 -1 20 9 20 17 24 38 20 14 -2 42 -5 61 -6
20 -2 34 -7 33 -14 -4 -19 26 -38 39 -25 7 7 9 12 6 12 -4 0 3 11 15 24 16 18
25 22 34 14 7 -5 16 -7 22 -4z m266 -11 c4 -10 9 -29 10 -43 2 -14 1 -19 -2
-12 -3 6 -10 9 -15 6 -6 -4 -8 -2 -4 4 3 6 2 13 -3 17 -11 6 -11 45 0 45 4 0
10 -8 14 -17z m-976 -14 c-16 -10 -23 -4 -14 10 3 6 11 8 17 5 6 -4 5 -9 -3
-15z m381 1 c0 10 3 10 15 0 8 -7 12 -16 9 -21 -3 -5 2 -6 11 -3 10 4 14 2 10
-7 -3 -8 -16 -15 -30 -15 -14 -1 -23 1 -21 5 3 4 0 13 -5 21 -8 13 -10 13 -19
0 -11 -17 -13 -10 -4 14 5 13 9 14 20 5 11 -9 14 -8 14 1z m67 -25 c-1 -20 -7
-37 -15 -40 -10 -4 -12 0 -7 12 4 10 7 28 6 41 0 12 3 22 8 22 5 0 8 -16 8
-35z m243 19 c0 -8 -4 -12 -10 -9 -9 6 -14 -8 -11 -27 0 -5 -4 -8 -10 -8 -5 0
-7 -4 -4 -10 3 -5 26 -8 50 -7 39 2 42 1 34 -15 -5 -10 -15 -18 -22 -18 -8 0
-7 4 3 11 13 9 13 10 0 6 -8 -2 -14 -9 -13 -15 2 -6 -6 -10 -17 -9 -11 1 -20
5 -20 10 0 4 -6 5 -12 0 -20 -12 -41 -13 -57 -2 -14 9 -14 10 1 5 12 -3 15 -1
11 9 -3 8 -9 12 -14 10 -4 -3 -14 3 -21 14 -11 18 -13 18 -25 3 -11 -15 -12
-15 -10 6 2 12 9 28 17 35 8 7 10 8 7 1 -9 -15 79 -88 88 -73 4 5 -1 19 -11
30 -10 11 -12 19 -5 19 6 0 17 11 23 25 13 28 28 33 28 9z m-163 0 c-3 -4 -2
-15 3 -25 8 -14 6 -21 -10 -29 -18 -10 -21 -9 -18 6 2 10 -4 18 -16 20 -14 2
-16 0 -7 -9 18 -18 13 -28 -9 -15 -17 11 -18 14 -4 29 9 10 22 15 29 13 7 -3
16 -1 20 5 3 6 9 11 12 11 4 0 3 -3 0 -6z m-524 -23 c4 0 7 -5 7 -11 0 -12
-22 -9 -33 5 -5 6 -6 1 -2 -10 4 -11 8 -27 9 -35 2 -10 15 -15 38 -15 28 0 34
3 33 19 -1 11 -8 22 -16 24 -9 2 -10 1 -3 -5 9 -6 8 -11 -2 -21 -8 -7 -14 -11
-15 -10 -7 27 -3 37 18 47 18 8 22 8 17 0 -4 -8 1 -9 17 -4 19 5 21 4 9 -4 -9
-7 -10 -11 -3 -11 7 0 17 8 23 18 9 15 10 15 8 -5 -2 -13 5 -28 17 -36 18 -14
18 -15 -8 -12 -15 2 -27 -1 -27 -5 0 -5 -13 -7 -30 -5 -28 4 -35 -3 -31 -28 1
-5 -3 -6 -9 -2 -6 3 -8 10 -6 14 3 3 -4 7 -14 7 -10 0 -17 -4 -14 -7 2 -4 -1
-11 -7 -15 -7 -4 -9 -3 -5 4 3 6 0 17 -9 25 -13 13 -12 16 3 22 15 6 15 8 2
18 -8 7 -16 19 -18 28 -2 15 9 17 51 10z m914 -3 c-9 -6 -9 -8 0 -8 7 0 21
-17 31 -37 10 -21 23 -37 29 -36 15 3 25 -25 11 -33 -7 -4 -8 -3 -4 4 10 17
-5 15 -25 -4 -14 -12 -16 -21 -9 -34 8 -15 6 -18 -8 -15 -9 1 -21 0 -27 -4
-18 -11 -50 -7 -61 8 -9 12 -15 13 -26 3 -11 -9 -19 -8 -35 3 -11 8 -23 12
-26 9 -3 -3 -10 5 -17 18 -11 22 -10 22 4 4 11 -13 16 -15 16 -6 0 7 3 10 6 7
4 -3 16 -2 28 4 19 9 19 9 4 -4 -23 -18 -23 -23 1 -23 11 0 17 4 14 9 -6 10
16 37 30 37 5 0 2 -9 -8 -20 -10 -11 -13 -20 -7 -20 7 0 12 6 12 13 0 8 3 7 9
-3 6 -8 7 -18 4 -24 -3 -5 -1 -6 5 -2 6 4 9 14 6 24 -3 9 2 5 11 -10 17 -30
31 -38 21 -13 -5 13 -2 14 17 5 20 -10 20 -10 5 3 -20 16 -25 32 -6 21 7 -4 8
-3 4 4 -5 8 -1 10 10 5 12 -4 15 -3 10 5 -4 7 -14 12 -23 12 -16 0 -9 14 8 16
19 3 20 4 14 14 -5 8 -11 7 -21 -1 -15 -13 -17 -9 -8 15 3 9 11 13 18 9 6 -4
5 0 -2 9 -8 10 -20 14 -29 11 -10 -4 -14 -2 -9 5 3 6 1 14 -5 18 -7 4 -9 3 -5
-4 3 -6 2 -13 -4 -17 -5 -3 -10 2 -11 12 0 11 -3 13 -6 5 -2 -6 -9 -9 -15 -6
-6 4 -6 -2 1 -14 8 -15 8 -23 0 -27 -6 -4 -8 -14 -5 -22 4 -9 2 -11 -6 -7 -7
5 -8 2 -3 -7 5 -8 5 -11 0 -7 -4 4 -15 2 -23 -5 -11 -8 -14 -8 -9 0 4 6 3 15
-3 18 -6 4 -10 3 -9 -2 3 -20 -2 -34 -11 -28 -6 4 -8 10 -5 15 3 5 1 12 -5 15
-6 4 -9 1 -8 -5 2 -7 -5 -14 -15 -15 -18 -3 -18 -2 -2 15 9 10 23 16 30 14 7
-3 16 0 20 6 5 8 10 8 20 0 9 -8 14 -7 18 4 8 20 0 58 -13 66 -5 3 17 6 50 6
32 0 54 -4 47 -8z m-622 -9 c-4 -6 -1 -9 6 -8 8 2 24 -2 37 -9 17 -10 27 -10
43 -1 18 9 24 8 31 -5 7 -12 14 -13 33 -6 23 9 29 6 26 -12 0 -5 4 -8 9 -8 6
0 10 5 10 12 0 6 3 8 7 4 5 -4 -1 -14 -11 -22 -24 -17 -37 -18 -33 -3 1 6 -5
14 -13 16 -12 4 -12 3 -1 -5 9 -7 10 -12 2 -16 -6 -4 -11 -3 -11 3 0 5 -15 8
-32 6 -23 -3 -29 -2 -18 5 8 5 11 12 7 17 -5 4 -12 1 -18 -7 -7 -13 -10 -13
-18 -1 -5 8 -14 10 -21 6 -9 -6 -11 -4 -5 5 5 9 4 11 -4 6 -6 -4 -8 -12 -5
-18 4 -6 1 -9 -7 -6 -8 3 -14 11 -14 18 0 7 -6 14 -13 16 -7 1 -8 0 -2 -3 7
-3 4 -10 -7 -19 -17 -13 -17 -14 0 -8 21 7 23 -1 2 -10 -9 -3 -19 3 -25 14 -9
16 -6 22 17 34 34 18 36 19 28 5z m-75 -43 c0 -6 -4 -6 -9 3 -6 9 -11 10 -15
2 -5 -7 -12 -7 -25 1 -14 8 -16 14 -7 23 8 10 16 9 33 -2 13 -9 23 -20 23 -27z
m-215 24 c3 -5 1 -10 -4 -10 -6 0 -11 5 -11 10 0 6 2 10 4 10 3 0 8 -4 11 -10z
m582 -39 c2 -14 -2 -18 -15 -16 -9 2 -19 4 -21 4 -3 1 4 8 15 17 18 15 18 15
-3 5 -31 -16 -35 -14 -16 9 19 22 35 14 40 -19z m322 18 c-4 -9 -6 -27 -4 -39
2 -13 1 -29 -4 -38 -7 -12 -9 -12 -14 3 -4 9 -12 13 -19 9 -7 -4 -10 -4 -6 1
4 4 3 16 -3 27 -7 13 -7 23 0 32 6 7 9 15 6 17 -2 3 9 5 24 4 24 0 27 -3 20
-16z m-374 1 c-3 -5 -10 -10 -16 -10 -5 0 -9 5 -9 10 0 6 7 10 16 10 8 0 12
-4 9 -10z m-147 -26 c94 -11 101 -11 106 3 5 11 11 11 38 -4 40 -21 49 -22 66
-10 8 7 12 5 12 -6 0 -9 5 -19 11 -22 6 -4 9 0 7 11 -2 14 4 18 30 20 18 0 35
-3 38 -7 3 -5 10 -9 15 -9 6 0 7 5 4 10 -3 6 -1 10 5 10 7 0 10 -6 7 -14 -3
-7 0 -19 6 -25 8 -8 6 -16 -9 -32 l-21 -21 -22 37 c-11 20 -16 33 -9 29 7 -4
8 -3 4 5 -4 6 -12 9 -17 5 -5 -3 -7 -9 -5 -13 3 -4 1 -13 -4 -21 -7 -11 -12
-11 -23 -2 -12 10 -16 9 -22 -5 -5 -10 -7 -22 -6 -26 1 -5 -3 -6 -9 -2 -6 3
-8 10 -5 15 3 4 -2 13 -9 19 -10 8 -16 9 -21 1 -10 -16 -28 -12 -22 5 4 8 2
17 -4 20 -5 4 -7 10 -4 15 13 20 -30 1 -44 -20 -14 -21 -14 -23 -1 -15 13 7
13 6 2 -7 -9 -11 -10 -18 -2 -23 6 -4 9 -1 8 7 -2 7 4 12 12 10 12 -3 13 -1 3
9 -18 18 -16 34 2 19 19 -16 19 -20 -6 -49 l-20 -24 -15 21 c-9 13 -22 19 -34
17 -11 -2 -18 0 -15 5 3 5 0 12 -6 15 -5 4 -8 13 -5 21 3 7 0 16 -6 20 -6 4
-9 3 -5 -2 3 -5 -1 -20 -8 -34 l-14 -25 2 29 c1 21 -3 30 -16 32 -9 1 -15 -2
-11 -7 3 -5 10 -6 16 -3 7 5 8 2 3 -6 -6 -10 -12 -9 -25 8 -19 23 -43 12 -33
-17 4 -9 2 -13 -2 -8 -5 4 -19 0 -31 -8 -15 -9 -25 -11 -29 -5 -4 6 -10 8 -15
5 -5 -3 -12 0 -16 6 -5 8 -3 9 5 5 8 -5 11 -3 9 5 -1 8 1 15 5 16 4 2 21 10
38 19 17 8 28 11 25 5 -11 -17 10 -13 24 4 10 12 16 13 27 3 8 -6 26 -13 41
-14z m133 -31 c13 -16 12 -17 -3 -4 -17 13 -22 21 -14 21 2 0 10 -8 17 -17z
m-511 -3 c0 -5 -4 -10 -10 -10 -5 0 -10 5 -10 10 0 6 5 10 10 10 6 0 10 -4 10
-10z"/>
<path d="M3181 3047 c-8 -11 -9 -17 -1 -22 16 -10 2 -24 -20 -20 -12 2 -18 1
-16 -4 5 -8 85 -9 89 -1 1 3 -7 18 -19 34 -17 24 -22 26 -33 13z m16 -3 c-3
-4 3 -14 14 -23 21 -17 21 -17 -2 -18 -16 -2 -19 1 -11 6 11 7 10 10 -3 15
-15 5 -13 26 2 26 4 0 4 -3 0 -6z"/>
<path d="M3425 3051 c-3 -6 -11 -9 -16 -5 -6 3 -17 -3 -25 -15 -16 -22 -40
-20 -28 2 4 7 -4 2 -18 -11 -13 -12 -28 -19 -33 -15 -5 5 4 -8 19 -27 16 -19
34 -35 40 -36 16 -1 46 27 40 37 -3 5 7 21 21 35 17 17 23 30 17 36 -6 6 -12
6 -17 -1z m-9 -32 c-14 -17 -24 -35 -21 -39 6 -9 -13 -24 -30 -25 -19 -1 -44
39 -33 52 11 14 32 7 23 -8 -13 -20 8 -8 27 16 11 14 23 23 28 20 5 -3 11 -1
15 5 3 5 9 10 11 10 3 0 -6 -14 -20 -31z"/>
<path d="M3382 3003 c-18 -24 -51 -26 -36 -1 5 7 2 8 -5 3 -10 -6 -10 -10 1
-21 18 -17 32 -21 36 -9 2 6 10 20 18 33 20 31 10 28 -14 -5z"/>
<path d="M4016 3023 c-15 -18 -32 -31 -37 -28 -5 4 -7 10 -4 15 3 5 1 11 -4
14 -5 4 -12 2 -16 -3 -3 -5 -14 -8 -25 -6 -12 2 -18 0 -15 -6 4 -5 10 -7 15
-4 8 5 23 -11 26 -27 1 -5 2 -11 3 -15 0 -3 9 1 19 10 10 10 22 14 26 10 7 -8
11 -9 37 -12 5 0 8 -5 4 -10 -3 -5 0 -13 7 -17 7 -4 10 -4 6 1 -4 4 -3 14 3
21 7 9 4 16 -11 27 -19 13 -19 15 -4 21 9 4 14 9 11 13 -4 3 -2 11 3 18 7 8 5
12 -4 12 -8 0 -26 -15 -40 -34z m20 -5 c-18 -10 -18 -11 5 -30 23 -18 23 -19
2 -8 -13 6 -23 8 -23 5 0 -4 -5 -3 -11 0 -12 8 17 45 35 45 6 0 2 -6 -8 -12z
m-69 -5 c-4 -3 -2 -12 4 -19 7 -8 6 -14 -2 -20 -7 -4 -9 -3 -5 4 3 6 2 13 -4
17 -10 6 -5 25 7 25 4 0 3 -3 0 -7z"/>
<path d="M3037 3038 c6 -7 9 -24 8 -37 -2 -22 -1 -22 11 -6 10 13 10 21 1 36
-6 10 -16 19 -21 19 -4 0 -4 -6 1 -12z"/>
<path d="M3595 3041 c-3 -6 -10 -9 -15 -6 -4 3 -13 -2 -20 -10 -7 -8 -17 -12
-24 -9 -6 3 0 -4 13 -15 23 -21 25 -21 41 -4 10 11 13 21 7 24 -5 4 -3 9 4 11
8 3 11 8 8 12 -4 4 -10 2 -14 -3z m-12 -38 c-4 -11 -8 -13 -11 -5 -2 7 -9 9
-15 5 -7 -4 -6 1 2 10 16 20 33 13 24 -10z"/>
<path d="M3697 3037 c-3 -8 1 -14 8 -14 7 0 11 6 8 14 -3 7 -6 13 -8 13 -2 0
-5 -6 -8 -13z"/>
<path d="M3825 3011 c-15 -17 -15 -19 -1 -17 22 3 40 22 28 30 -5 3 -17 -3
-27 -13z"/>
<path d="M3094 3009 c-3 -6 4 -21 17 -33 l23 -21 -18 22 c-10 12 -15 27 -11
32 3 6 4 11 1 11 -3 0 -8 -5 -12 -11z"/>
<path d="M3510 2966 c0 -2 7 -7 16 -10 8 -3 12 -2 9 4 -6 10 -25 14 -25 6z"/>
<path d="M3107 3265 c3 -8 9 -12 14 -9 12 7 11 11 -5 17 -10 4 -13 1 -9 -8z"/>
<path d="M3110 3065 c-7 -8 -11 -15 -9 -16 37 -7 40 -7 30 5 -6 7 -8 16 -4 19
3 4 4 7 1 7 -3 0 -11 -7 -18 -15z"/>
<path d="M3305 3061 c-3 -6 -14 -8 -24 -6 -10 2 -18 -2 -18 -9 0 -19 25 -15
44 6 9 10 13 18 10 18 -3 0 -8 -4 -12 -9z"/>
<path d="M3776 3233 c-8 -21 5 -35 23 -23 12 7 12 11 -1 24 -15 14 -17 14 -22
-1z"/>
<path d="M3720 3160 c-9 -6 -10 -10 -3 -10 6 0 15 5 18 10 8 12 4 12 -15 0z"/>
<path d="M3110 3160 c0 -5 5 -10 10 -10 6 0 10 5 10 10 0 6 -4 10 -10 10 -5 0
-10 -4 -10 -10z"/>
<path d="M3986 3121 c-4 -5 -2 -12 3 -15 5 -4 12 -2 15 3 4 5 2 12 -3 15 -5 4
-12 2 -15 -3z"/>
<path d="M3430 3176 c0 -2 8 -10 18 -17 15 -13 16 -12 3 4 -13 16 -21 21 -21
13z"/>
<path d="M3925 3163 c3 -3 -2 -11 -11 -17 -14 -11 -14 -14 3 -32 10 -11 15
-15 11 -10 -11 13 -10 28 0 22 10 -6 9 31 -1 39 -4 3 -5 2 -2 -2z"/>
<path d="M3316 3121 c-4 -5 -15 -8 -26 -6 -17 3 -19 1 -10 -16 13 -23 22 -25
13 -2 -4 9 -2 14 3 10 12 -7 41 9 32 18 -3 4 -9 2 -12 -4z"/>
<path d="M3454 3108 c-3 -4 1 -14 8 -22 11 -11 15 -11 25 3 12 14 12 14 7 -1
-4 -11 -1 -18 7 -18 7 0 9 3 6 6 -3 4 -2 14 2 23 7 13 4 16 -21 16 -16 1 -32
-3 -34 -7z m36 -4 c0 -8 -19 -13 -24 -6 -3 5 1 9 9 9 8 0 15 -2 15 -3z"/>
<path d="M3584 3100 c0 -13 4 -16 10 -10 7 7 7 13 0 20 -6 6 -10 3 -10 -10z"/>
<path d="M3725 3100 c6 -30 17 -41 33 -31 9 5 6 13 -13 31 l-24 23 4 -23z m23
-25 c-3 -3 -9 2 -12 12 -6 14 -5 15 5 6 7 -7 10 -15 7 -18z"/>
<path d="M3610 3103 c0 -2 7 -11 15 -19 8 -9 15 -11 15 -5 0 6 1 14 3 18 1 3
-6 7 -15 9 -10 1 -18 0 -18 -3z"/>
<path d="M3610 3566 c0 -2 7 -7 16 -10 8 -3 12 -2 9 4 -6 10 -25 14 -25 6z"/>
<path d="M3650 3560 c0 -5 5 -10 10 -10 6 0 10 5 10 10 0 6 -4 10 -10 10 -5 0
-10 -4 -10 -10z"/>
<path d="M3688 3562 c8 -5 13 -13 13 -18 -2 -12 38 -14 45 -2 4 5 1 15 -5 21
-9 9 -11 8 -6 -3 4 -11 -1 -16 -15 -17 -11 -1 -19 3 -17 9 1 6 -5 13 -13 15
-12 4 -12 3 -2 -5z"/>
<path d="M3830 3566 c0 -2 7 -7 16 -10 8 -3 12 -2 9 4 -6 10 -25 14 -25 6z"/>
<path d="M4041 3554 c0 -11 3 -14 6 -6 3 7 2 16 -1 19 -3 4 -6 -2 -5 -13z"/>
<path d="M3029 3550 c-17 -10 -21 -51 -5 -49 5 0 13 -5 18 -13 8 -10 9 -10 5
2 -2 8 -9 14 -15 13 -6 -2 -10 6 -9 17 1 14 6 18 18 15 10 -3 20 -1 24 4 4 7
-1 8 -11 4 -12 -4 -15 -3 -10 5 9 14 6 14 -15 2z"/>
<path d="M3190 3550 c0 -5 5 -10 10 -10 6 0 10 5 10 10 0 6 -4 10 -10 10 -5 0
-10 -4 -10 -10z"/>
<path d="M3350 3550 c0 -5 6 -10 13 -10 7 0 13 -9 14 -20 1 -11 -3 -19 -9 -17
-6 1 -13 -5 -15 -13 -4 -12 -3 -12 5 -2 5 8 13 13 18 13 17 -2 11 40 -7 50
-13 6 -19 6 -19 -1z"/>
<path d="M3457 3554 c-4 -4 -4 -11 -1 -15 7 -12 34 -11 34 1 0 5 -7 6 -17 3
-11 -4 -14 -3 -9 5 8 13 3 16 -7 6z"/>
<path d="M3595 3549 c6 -9 3 -11 -9 -6 -10 4 -15 3 -11 -4 4 -5 14 -7 24 -4
12 3 17 -1 18 -16 2 -18 0 -19 -15 -7 -15 12 -16 11 -3 -4 7 -10 17 -15 21
-13 15 9 6 46 -13 57 -15 8 -18 7 -12 -3z"/>
<path d="M3916 3545 c-9 -26 -7 -32 5 -12 6 10 9 21 6 23 -2 3 -7 -2 -11 -11z"/>
<path d="M4070 3551 c0 -6 4 -13 10 -16 6 -3 7 1 4 9 -7 18 -14 21 -14 7z"/>
<path d="M3270 3540 c0 -5 5 -10 10 -10 6 0 10 5 10 10 0 6 -4 10 -10 10 -5 0
-10 -4 -10 -10z"/>
<path d="M3401 3524 c0 -11 3 -14 6 -6 3 7 2 16 -1 19 -3 4 -6 -2 -5 -13z"/>
<path d="M3430 3530 c0 -5 5 -10 11 -10 5 0 7 5 4 10 -3 6 -8 10 -11 10 -2 0
-4 -4 -4 -10z"/>
<path d="M3502 3520 c0 -14 2 -19 5 -12 2 6 2 18 0 25 -3 6 -5 1 -5 -13z"/>
<path d="M3835 3530 c-3 -5 -1 -10 4 -10 6 0 11 5 11 10 0 6 -2 10 -4 10 -3 0
-8 -4 -11 -10z"/>
<path d="M3876 3525 c-3 -8 -1 -15 4 -15 6 0 10 7 10 15 0 8 -2 15 -4 15 -2 0
-6 -7 -10 -15z"/>
<path d="M3078 3523 c7 -3 16 -2 19 1 4 3 -2 6 -13 5 -11 0 -14 -3 -6 -6z"/>
<path d="M3170 3520 c0 -5 5 -10 10 -10 6 0 10 5 10 10 0 6 -4 10 -10 10 -5 0
-10 -4 -10 -10z"/>
<path d="M3210 3520 c0 -5 5 -10 10 -10 6 0 10 5 10 10 0 6 -4 10 -10 10 -5 0
-10 -4 -10 -10z"/>
<path d="M3330 3520 c0 -5 5 -10 10 -10 6 0 10 5 10 10 0 6 -4 10 -10 10 -5 0
-10 -4 -10 -10z"/>
<path d="M3548 3523 c7 -3 16 -2 19 1 4 3 -2 6 -13 5 -11 0 -14 -3 -6 -6z"/>
<path d="M3670 3520 c-11 -7 -11 -10 -2 -10 7 0 10 -4 7 -10 -3 -5 0 -7 9 -4
11 4 13 0 9 -14 -2 -11 0 -23 5 -26 7 -4 10 4 8 21 -2 15 -8 29 -15 31 -6 2
-9 8 -5 13 7 11 3 11 -16 -1z"/>
<path d="M3930 3520 c0 -5 5 -10 10 -10 6 0 10 5 10 10 0 6 -4 10 -10 10 -5 0
-10 -4 -10 -10z"/>
<path d="M4050 3520 c0 -5 5 -10 10 -10 6 0 10 5 10 10 0 6 -4 10 -10 10 -5 0
-10 -4 -10 -10z"/>
<path d="M2952 3511 c-11 -7 -10 -9 3 -14 9 -4 14 -3 10 2 -3 5 1 12 7 14 7 3
9 6 3 6 -5 0 -16 -3 -23 -8z"/>
<path d="M3057 3511 c6 -7 9 -20 6 -27 -3 -8 0 -14 7 -14 6 0 9 4 6 9 -3 5 1
11 8 14 8 3 17 2 20 -4 2 -5 3 -4 2 3 -2 7 -9 12 -16 10 -7 -1 -20 3 -29 10
-13 10 -14 10 -4 -1z"/>
<path d="M3718 3513 c7 -3 16 -2 19 1 4 3 -2 6 -13 5 -11 0 -14 -3 -6 -6z"/>
<path d="M3788 3513 c7 -3 16 -2 19 1 4 3 -2 6 -13 5 -11 0 -14 -3 -6 -6z"/>
<path d="M2985 3499 c-4 -6 -5 -12 -2 -15 2 -3 7 2 10 11 7 17 1 20 -8 4z"/>
<path d="M3132 3498 c-15 -15 -15 -28 -1 -28 5 0 8 4 5 9 -4 5 0 11 6 14 7 2
10 7 7 10 -3 4 -11 1 -17 -5z"/>
<path d="M3240 3500 c-12 -8 -13 -13 -2 -30 17 -28 15 -35 -13 -54 -20 -13
-28 -14 -45 -4 -11 7 -20 16 -20 21 0 4 5 5 12 1 7 -4 8 -3 4 4 -4 7 -2 12 3
12 6 0 11 5 11 12 0 6 -9 3 -20 -7 -21 -19 -29 -8 -9 12 6 6 10 16 8 21 -2 6
-12 -6 -22 -25 -9 -19 -13 -32 -7 -28 5 3 10 2 10 -3 0 -5 11 -17 25 -26 24
-16 27 -15 60 7 33 22 34 24 19 46 -12 17 -13 26 -5 34 8 8 11 7 11 -6 0 -9 5
-17 10 -17 7 0 7 6 0 20 -12 23 -11 23 -30 10z"/>
<path d="M3296 3503 c-3 -4 -6 -11 -6 -17 0 -6 4 -4 10 4 8 12 10 12 16 -3 3
-9 10 -17 15 -17 12 0 0 28 -16 34 -7 2 -16 2 -19 -1z"/>
<path d="M3412 3491 c-8 -23 -25 -32 -34 -18 -5 8 -8 8 -8 1 0 -21 34 -44 50
-33 13 9 12 10 -2 5 -22 -6 -34 10 -13 18 8 3 15 11 15 19 0 7 9 13 19 14 16
1 19 -3 15 -23 -3 -16 -1 -23 6 -19 5 3 8 16 6 28 -4 26 -45 33 -54 8z"/>
<path d="M3534 3498 c-4 -5 -3 -12 0 -15 3 -4 6 -2 6 3 0 5 9 10 20 11 11 1
19 -3 17 -9 -1 -6 4 -13 11 -15 6 -3 12 0 12 5 0 24 -54 40 -66 20z"/>
<path d="M3637 3496 c-3 -8 -2 -18 4 -22 16 -9 22 2 11 21 -8 15 -10 16 -15 1z"/>
<path d="M3750 3500 c0 -5 5 -10 10 -10 6 0 10 5 10 10 0 6 -4 10 -10 10 -5 0
-10 -4 -10 -10z"/>
<path d="M3817 3504 c-8 -9 11 -44 23 -44 6 0 10 5 10 11 0 5 -4 8 -9 5 -5 -3
-11 1 -14 8 -3 8 -1 17 6 20 7 3 8 5 1 5 -6 1 -14 -2 -17 -5z"/>
<path d="M3850 3500 c0 -5 5 -10 11 -10 5 0 7 -5 3 -12 -4 -7 -3 -8 5 -4 9 6
9 11 0 22 -14 17 -19 18 -19 4z"/>
<path d="M4014 3499 c-3 -6 -3 -13 0 -16 3 -4 6 -1 6 6 0 7 5 9 10 6 6 -4 8
-11 5 -16 -4 -5 -1 -9 4 -9 16 0 13 27 -4 33 -8 4 -17 2 -21 -4z"/>
<path d="M4074 3499 c-3 -6 -2 -15 3 -20 5 -5 9 -1 9 11 0 23 -2 24 -12 9z"/>
<path d="M3190 3490 c0 -5 5 -10 10 -10 6 0 10 5 10 10 0 6 -4 10 -10 10 -5 0
-10 -4 -10 -10z"/>
<path d="M2939 3483 c0 -4 -2 -16 -4 -26 -2 -9 1 -15 6 -11 5 3 7 9 4 14 -3 4
0 10 7 12 9 3 9 6 0 12 -7 4 -12 4 -13 -1z"/>
<path d="M3000 3480 c0 -5 5 -10 11 -10 5 0 7 5 4 10 -3 6 -8 10 -11 10 -2 0
-4 -4 -4 -10z"/>
<path d="M3490 3480 c18 -12 30 -13 30 -2 0 4 -10 9 -22 9 -18 2 -20 0 -8 -7z"/>
<path d="M3720 3473 c0 -12 3 -14 8 -6 5 8 11 8 24 -1 10 -7 14 -17 10 -21 -4
-5 -1 -5 5 -1 19 10 36 46 23 46 -5 0 -10 -7 -10 -16 0 -15 -2 -15 -25 0 -31
20 -35 20 -35 -1z"/>
<path d="M3543 3473 c-7 -3 -13 -9 -13 -15 0 -7 5 -6 14 1 11 9 14 6 14 -14 0
-13 -4 -22 -9 -19 -5 3 -9 0 -9 -6 0 -24 25 -2 27 23 2 29 -5 37 -24 30z"/>
<path d="M2975 3460 c3 -5 12 -10 19 -10 8 0 20 -10 29 -22 11 -18 18 -20 27
-12 7 7 9 21 5 33 -6 21 -25 29 -25 11 0 -5 5 -10 10 -10 6 0 10 -7 10 -15 0
-21 -5 -19 -34 10 -24 24 -53 35 -41 15z"/>
<path d="M3090 3459 c0 -5 -5 -7 -12 -3 -7 4 -8 3 -4 -5 6 -9 11 -9 22 0 17
14 18 19 4 19 -5 0 -10 -5 -10 -11z"/>
<path d="M3210 3463 c0 -4 5 -15 10 -23 8 -13 10 -13 10 2 0 9 -4 20 -10 23
-5 3 -10 3 -10 -2z"/>
<path d="M3300 3455 c7 -8 16 -13 20 -10 4 3 15 -6 24 -20 15 -23 46 -25 46
-3 0 7 -5 6 -14 -1 -11 -9 -17 -6 -30 14 -9 14 -21 23 -26 20 -6 -4 -10 -1
-10 4 0 6 -5 11 -11 11 -8 0 -8 -5 1 -15z"/>
<path d="M3350 3465 c0 -5 5 -17 10 -25 5 -8 10 -10 10 -5 0 6 -5 17 -10 25
-5 8 -10 11 -10 5z"/>
<path d="M3479 3458 c-1 -7 -1 -19 0 -26 2 -10 -3 -11 -16 -3 -13 6 -24 6 -34
-1 -12 -8 -11 -9 2 -5 9 3 21 1 27 -5 15 -15 30 -2 30 27 0 26 -7 35 -9 13z"/>
<path d="M3610 3460 c0 -5 -5 -9 -11 -7 -6 1 -14 -5 -16 -13 -3 -12 -2 -12 5
-2 7 10 11 10 22 -3 7 -8 20 -15 29 -14 10 0 8 4 -8 10 -19 8 -21 12 -11 24 9
10 9 15 1 15 -6 0 -11 -4 -11 -10z"/>
<path d="M3665 3460 c-3 -6 -3 -20 0 -31 6 -17 9 -19 16 -8 13 20 11 37 -2 19
-9 -12 -10 -11 -6 8 5 23 2 28 -8 12z"/>
<path d="M3797 3457 c-3 -8 -2 -20 3 -26 5 -9 8 -4 8 13 0 29 -3 32 -11 13z"/>
<path d="M3916 3455 c-9 -26 -7 -32 5 -12 6 10 9 21 6 23 -2 3 -7 -2 -11 -11z"/>
<path d="M4000 3454 c-11 -12 -11 -17 0 -27 10 -10 12 -9 7 5 -3 10 -2 20 3
23 5 3 11 -3 13 -12 4 -16 5 -16 6 -1 1 24 -14 31 -29 12z"/>
<path d="M4054 3456 c-4 -9 -4 -20 0 -23 3 -4 6 1 6 11 0 9 4 15 10 11 5 -3 7
-12 4 -19 -3 -8 -1 -16 4 -20 13 -8 8 32 -6 46 -9 9 -13 7 -18 -6z"/>
<path d="M3115 3449 c-4 -6 -5 -12 -2 -15 2 -3 7 2 10 11 7 17 1 20 -8 4z"/>
<path d="M3276 3447 c3 -10 9 -15 12 -12 3 3 0 11 -7 18 -10 9 -11 8 -5 -6z"/>
<path d="M3505 3449 c-4 -6 -5 -12 -2 -15 2 -3 7 2 10 11 7 17 1 20 -8 4z"/>
<path d="M2957 3443 c-4 -3 -7 -11 -7 -17 0 -6 5 -5 12 2 6 6 9 14 7 17 -3 3
-9 2 -12 -2z"/>
<path d="M3732 3438 c2 -6 10 -13 16 -14 7 -1 8 0 2 3 -5 2 -8 9 -4 14 3 5 0
9 -6 9 -7 0 -10 -5 -8 -12z"/>
<path d="M3190 3430 c0 -5 5 -10 10 -10 6 0 10 5 10 10 0 6 -4 10 -10 10 -5 0
-10 -4 -10 -10z"/>
<path d="M3078 3423 c7 -3 16 -2 19 1 4 3 -2 6 -13 5 -11 0 -14 -3 -6 -6z"/>
<path d="M3890 3420 c0 -5 5 -10 11 -10 5 0 8 -4 4 -9 -3 -5 2 -16 10 -24 17
-18 20 -31 5 -22 -5 3 -10 1 -10 -4 0 -13 10 -14 28 -3 9 6 7 13 -8 29 -11 12
-15 23 -10 25 6 2 1 9 -10 16 -12 7 -20 8 -20 2z"/>
<path d="M3563 3401 c-22 -19 -32 -38 -14 -26 5 3 11 0 14 -7 2 -7 3 -5 2 4
-3 20 20 42 35 33 5 -3 10 -1 10 4 0 17 -22 12 -47 -8z"/>
<path d="M2995 3400 c-4 -6 -4 -14 -1 -17 3 -4 6 -1 6 5 0 7 5 12 11 12 5 0 7
-4 4 -10 -3 -5 -1 -10 5 -10 14 0 8 22 -7 27 -6 2 -14 -1 -18 -7z"/>
<path d="M3056 3403 c-10 -10 -7 -23 5 -23 5 0 7 5 4 10 -3 6 -2 10 4 10 5 0
11 -5 13 -12 3 -8 6 -7 10 3 6 15 -23 24 -36 12z"/>
<path d="M3315 3400 c-4 -6 -4 -14 -1 -17 3 -4 6 -1 6 5 0 7 5 12 11 12 5 0 7
-4 4 -10 -3 -5 -1 -10 5 -10 14 0 8 22 -7 27 -6 2 -14 -1 -18 -7z"/>
<path d="M3190 3370 c0 -5 5 -10 10 -10 6 0 10 5 10 10 0 6 -4 10 -10 10 -5 0
-10 -4 -10 -10z"/>
<path d="M4015 3350 c-3 -5 -1 -10 4 -10 6 0 11 5 11 10 0 6 -2 10 -4 10 -3 0
-8 -4 -11 -10z"/>
<path d="M3630 3331 c-6 -12 -7 -21 -1 -21 10 0 24 30 17 37 -2 3 -9 -5 -16
-16z"/>
<path d="M3465 3000 c-3 -6 -11 -7 -17 -4 -6 4 -6 0 1 -14 8 -16 6 -23 -10
-38 -20 -18 -20 -19 -2 -32 17 -13 17 -14 -2 -8 -16 5 -21 1 -22 -14 -1 -14 2
-18 10 -13 7 4 20 9 30 10 13 2 17 -2 13 -14 -8 -25 9 -51 17 -28 4 9 3 13 -3
10 -6 -3 -10 -2 -10 3 0 6 6 12 14 15 10 4 14 0 11 -13 -3 -13 1 -17 11 -13 7
3 11 9 8 14 -3 5 1 9 8 9 11 0 10 2 0 9 -11 7 -10 10 3 15 9 3 22 3 27 -1 7
-4 8 -1 3 8 -6 11 -5 12 6 2 19 -19 28 -16 24 7 -3 14 0 18 8 13 18 -11 67
-11 60 0 -4 6 -1 7 7 2 9 -6 11 -4 5 5 -6 9 -4 11 6 5 12 -7 12 -6 1 7 -11 14
-9 15 23 12 36 -3 44 6 22 25 -10 8 -17 7 -25 -1 -9 -9 -17 -7 -33 8 -22 19
-22 19 -11 -2 9 -18 8 -25 -8 -39 -15 -14 -23 -15 -34 -6 -11 9 -17 8 -28 -6
-17 -23 -39 -28 -50 -11 -6 10 -10 10 -17 -2 -5 -8 -8 -17 -5 -21 9 -16 -25
-16 -40 -1 -20 23 -15 50 13 71 20 15 21 19 8 30 -11 8 -17 9 -22 1z m19 -8
c3 -5 -1 -9 -9 -9 -8 0 -12 4 -9 9 3 4 7 8 9 8 2 0 6 -4 9 -8z m230 -20 c3 -5
-1 -9 -9 -9 -8 0 -12 4 -9 9 3 4 7 8 9 8 2 0 6 -4 9 -8z m-54 -26 c0 -2 -8
-10 -17 -17 -16 -13 -17 -12 -4 4 13 16 21 21 21 13z"/>
<path d="M3000 2985 c-7 -8 -15 -13 -19 -11 -4 3 -13 1 -21 -4 -10 -6 -11 -12
-3 -22 6 -7 9 -20 8 -29 -3 -17 29 -20 32 -4 1 6 -6 9 -15 7 -16 -2 -16 -2 0
8 9 6 15 17 12 25 -4 8 -1 15 4 15 6 0 9 -9 7 -20 -3 -13 0 -18 7 -14 7 5 8 2
3 -5 -4 -7 5 -5 21 5 16 10 26 14 22 9 -4 -4 -2 -15 5 -24 11 -14 10 -14 -6
-2 -21 17 -34 9 -12 -9 11 -9 12 -17 4 -32 -9 -18 -9 -18 10 -8 12 6 21 7 21
3 0 -4 5 -1 11 7 9 13 10 12 5 -2 -4 -14 -1 -16 18 -8 13 5 27 6 30 3 3 -4 6
-1 6 7 0 10 3 10 17 -1 14 -12 16 -12 11 1 -3 8 -14 14 -24 13 -16 -1 -15 2 6
19 14 11 19 16 11 12 -10 -5 -12 -3 -7 5 6 9 11 9 21 1 8 -7 15 -7 19 -1 3 5
0 12 -6 15 -7 3 -1 3 15 1 18 -2 25 0 21 7 -4 7 -2 8 4 4 7 -4 12 -2 12 3 0
12 -13 14 -24 4 -6 -6 -20 -9 -63 -15 -7 -1 -11 -3 -8 -6 6 -6 -27 -62 -37
-62 -4 0 -10 5 -13 10 -4 7 -13 6 -26 -1 -20 -10 -20 -10 -4 21 9 18 12 29 7
26 -6 -3 -13 1 -16 10 -3 8 -11 12 -16 9 -15 -9 -42 15 -36 32 7 17 1 17 -14
-2z m-23 -30 c0 -8 -4 -12 -9 -9 -5 3 -6 10 -3 15 9 13 12 11 12 -6z"/>
<path d="M3870 2975 c-7 -9 -15 -13 -18 -10 -3 3 -12 0 -19 -7 -9 -7 -17 -8
-21 -2 -11 15 -70 13 -76 -2 -4 -9 -15 -13 -31 -10 -14 3 -23 1 -20 -3 2 -5
-2 -14 -10 -21 -8 -7 -12 -16 -9 -21 3 -5 0 -9 -6 -9 -6 0 -8 -5 -4 -11 5 -8
8 -8 14 0 4 7 13 11 20 9 7 -2 15 3 18 11 2 8 0 11 -6 7 -6 -3 -14 -2 -17 4
-4 6 -3 10 2 9 4 -1 11 0 16 1 12 4 26 7 37 9 6 0 9 4 9 9 -3 19 2 23 15 13
10 -8 16 -9 21 -1 3 6 11 8 16 4 6 -4 6 -11 -2 -20 -9 -11 -9 -17 1 -29 7 -8
17 -15 22 -15 6 0 5 6 -2 15 -15 19 -5 34 19 28 10 -3 22 1 26 8 5 7 4 10 -3
5 -6 -3 -13 -2 -17 3 -3 6 4 8 17 6 12 -3 26 1 31 8 6 8 7 7 3 -5 -6 -22 10
-33 18 -13 8 21 7 30 -1 30 -5 0 -13 4 -19 8 -7 4 -17 0 -24 -8z"/>
<path d="M3276 2953 c10 -7 12 -13 5 -13 -7 0 -10 -4 -6 -10 3 -5 13 -6 23 -3
14 5 13 3 -3 -13 -11 -10 -16 -16 -11 -11 17 13 28 8 22 -10 -5 -15 -3 -14 10
2 13 16 15 16 11 3 -3 -10 -2 -20 3 -23 9 -5 14 6 12 26 -1 3 6 6 14 6 8 0 14
-5 14 -11 0 -5 7 -1 16 10 15 18 15 18 4 -3 -8 -18 -8 -21 3 -18 14 6 21 45 7
45 -5 0 -11 -4 -14 -8 -6 -11 -46 -9 -64 1 -7 5 -9 13 -6 19 4 7 2 8 -5 4 -6
-4 -14 -1 -17 7 -2 7 -12 14 -21 14 -13 0 -13 -2 3 -14z"/>
<path d="M3971 2939 c-13 -11 -21 -23 -17 -26 4 -4 11 -1 16 7 6 8 10 10 10 4
0 -14 30 -14 30 0 0 6 5 4 10 -4 6 -10 3 -21 -11 -36 -10 -11 -16 -24 -12 -27
9 -10 25 -9 19 1 -2 4 2 15 9 25 11 15 17 16 34 8 13 -7 22 -8 26 -1 3 5 1 10
-6 10 -8 0 -8 4 1 15 7 9 8 15 2 15 -5 0 -12 -7 -16 -15 -3 -8 -12 -12 -21 -9
-8 3 -13 9 -11 13 2 3 -6 13 -18 22 -20 16 -23 15 -45 -2z m33 3 c3 -5 -1 -9
-9 -9 -8 0 -12 4 -9 9 3 4 7 8 9 8 2 0 6 -4 9 -8z"/>
<path d="M3242 2938 c-7 -7 -12 -8 -12 -3 0 4 -8 1 -17 -8 -17 -14 -23 -17
-39 -17 -4 0 -1 -7 6 -15 7 -8 18 -15 24 -15 6 0 4 5 -4 11 -11 8 -9 9 10 3
23 -6 24 -6 10 11 -12 15 -12 17 -1 10 10 -6 12 -4 6 4 -4 8 3 6 18 -4 17 -10
27 -13 32 -6 6 11 -1 15 -19 12 -5 -1 -4 5 4 13 15 19 0 22 -18 4z"/>
<path d="M3754 2943 c8 -14 -27 -36 -40 -25 -5 4 -3 0 4 -9 10 -14 9 -18 -5
-24 -10 -5 -21 -9 -25 -9 -3 -1 -10 -4 -14 -8 -10 -11 -34 11 -28 26 3 8 -5
12 -25 12 -16 0 -30 -2 -29 -5 0 -3 -1 -8 -2 -11 -4 -12 -6 -50 -2 -45 3 2 13
0 23 -6 15 -7 19 -6 19 5 0 8 5 18 12 22 7 5 9 2 5 -8 -7 -20 21 -18 34 3 5 8
9 9 9 4 0 -6 -5 -16 -12 -23 -9 -9 -9 -12 0 -12 7 0 12 4 12 8 0 5 7 17 15 28
11 14 14 15 9 2 -3 -10 2 -20 15 -28 17 -9 21 -8 21 5 0 8 -3 14 -7 13 -5 -2
-9 0 -10 5 -6 16 -3 27 8 27 5 0 8 -4 4 -9 -3 -5 0 -13 6 -17 8 -5 9 -3 4 6
-6 9 -4 11 5 5 9 -6 11 -4 5 5 -5 8 -4 11 3 6 6 -4 9 -13 6 -21 -6 -15 12 -15
35 0 10 5 16 4 19 -3 2 -7 8 -12 13 -12 6 0 7 5 3 12 -4 7 -3 8 4 4 7 -4 10 1
7 14 -4 22 10 36 20 20 10 -16 21 -12 22 10 2 25 -17 37 -31 19 -14 -18 -36
-22 -36 -7 0 6 -3 8 -6 5 -4 -4 -1 -13 5 -21 20 -24 -8 -31 -32 -8 -18 18 -19
23 -6 39 12 16 12 17 -2 6 -12 -10 -18 -10 -29 0 -10 9 -11 9 -6 0z m13 -19
c-3 -4 5 -16 19 -26 14 -11 22 -23 19 -26 -3 -4 -10 -1 -14 6 -7 12 -26 19
-55 21 -6 1 -1 8 10 16 19 15 32 20 21 9z m123 -4 c0 -5 -2 -10 -4 -10 -3 0
-8 5 -11 10 -3 6 -1 10 4 10 6 0 11 -4 11 -10z m-261 -56 c-9 -11 -15 -12 -25
-3 -11 9 -12 15 -3 25 9 11 15 12 25 3 11 -9 12 -15 3 -25z"/>
<path d="M3606 2881 c-4 -5 -2 -12 3 -15 5 -4 12 -2 15 3 4 5 2 12 -3 15 -5 4
-12 2 -15 -3z"/>
<path d="M3916 2933 c-3 -10 -6 -22 -7 -28 0 -5 -5 -18 -10 -27 -10 -19 9 -71
23 -62 5 3 2 16 -6 28 -10 16 -11 27 -4 37 8 12 9 11 5 -2 -3 -9 1 -16 8 -16
7 0 11 6 8 13 -2 6 1 15 8 20 8 4 10 3 5 -4 -4 -7 -3 -18 1 -26 8 -14 12 -16
34 -16 6 0 8 -7 5 -16 -3 -8 -2 -13 3 -10 5 4 7 -4 4 -16 -4 -19 -3 -20 6 -6
7 10 19 14 31 11 12 -3 20 0 20 6 0 7 -4 10 -9 6 -5 -3 -12 -1 -15 4 -4 5 -1
13 5 17 8 5 10 2 5 -7 -4 -8 1 -3 13 11 l20 25 -2 -34 c-1 -19 3 -36 8 -38 6
-2 11 12 11 32 0 32 -6 40 -28 36 -5 0 -8 4 -8 10 0 8 -5 7 -15 -1 -9 -7 -13
-15 -10 -18 3 -3 0 -11 -6 -19 -10 -11 -14 -10 -25 4 -11 15 -9 21 8 39 l20
22 -36 -3 c-27 -3 -38 1 -46 14 -5 10 -6 21 -3 25 3 3 1 6 -5 6 -6 0 -13 -8
-16 -17z m18 -35 c-9 -14 -23 2 -17 18 4 12 8 13 14 3 4 -7 5 -17 3 -21z m60
-10 c-3 -5 -10 -6 -15 -3 -5 4 -9 1 -9 -5 0 -6 -5 -8 -11 -4 -8 5 -8 8 0 14
16 9 41 8 35 -2z"/>
<path d="M3013 2908 c-13 -21 -51 -38 -70 -32 -15 5 -16 4 -3 -5 9 -6 10 -11
3 -11 -7 0 -11 -17 -11 -45 0 -25 4 -45 8 -45 5 0 7 9 5 20 -3 17 -1 18 15 10
14 -7 19 -6 24 6 4 11 2 15 -8 11 -15 -6 -36 10 -36 28 0 5 5 3 11 -5 9 -13
10 -12 5 3 -3 9 -1 17 4 17 6 0 10 -7 10 -15 0 -8 5 -15 11 -15 5 0 7 5 4 10
-4 6 -1 9 6 8 6 -2 13 2 16 9 3 8 -3 11 -17 8 -12 -2 -18 0 -14 6 3 6 9 8 12
5 3 -3 11 -1 19 5 7 6 14 8 14 3 1 -5 2 -13 4 -19 1 -5 3 -16 3 -24 2 -10 5
-11 15 -2 9 7 17 7 24 0 7 -7 12 -6 16 5 3 8 2 18 -3 21 -6 4 -10 2 -10 -2 0
-5 -9 -9 -20 -10 -23 -2 -24 1 -10 27 12 23 -13 50 -27 28z"/>
<path d="M3231 2903 c5 -28 -5 -33 -73 -36 -16 0 -28 -4 -28 -9 0 -4 -3 -7 -7
-7 -19 3 -31 -2 -36 -15 -4 -10 -1 -13 9 -9 7 3 14 10 14 17 1 6 7 0 16 -14
l15 -25 -5 25 c-3 14 -3 19 0 12 3 -6 10 -10 15 -7 5 4 6 -2 2 -11 -6 -15 -4
-15 20 1 15 9 24 22 20 28 -3 6 -1 7 5 3 7 -4 12 -1 12 6 0 10 2 10 9 -1 7
-11 9 -11 13 0 4 12 8 11 23 -1 17 -14 18 -13 11 4 -7 19 -6 19 13 2 11 -10
24 -15 30 -12 5 4 13 1 17 -5 4 -8 3 -9 -4 -5 -7 4 -12 2 -12 -3 0 -13 17 -15
24 -3 7 11 -11 37 -26 37 -7 1 -12 7 -10 15 2 10 0 11 -11 2 -10 -9 -19 -8
-35 4 -13 9 -22 12 -21 7z m-56 -53 c3 -6 -1 -7 -9 -4 -18 7 -21 14 -7 14 6 0
13 -4 16 -10z"/>
<path d="M3863 2885 c0 -8 7 -15 15 -15 12 0 12 3 2 15 -7 8 -13 15 -15 15 -1
0 -2 -7 -2 -15z"/>
<path d="M3349 2878 c-1 -7 -1 -19 0 -26 1 -8 -6 -20 -16 -27 -15 -11 -19 -10
-31 6 -14 21 -32 25 -32 8 0 -5 4 -8 9 -4 5 3 13 0 17 -6 4 -7 3 -9 -4 -5 -17
10 -22 -7 -6 -22 10 -10 14 -10 14 -1 0 7 3 9 7 6 3 -4 12 -2 20 5 11 8 12 7
7 -6 -3 -9 -12 -17 -20 -17 -8 -1 -19 -2 -26 -3 -6 0 -13 -6 -15 -13 -4 -12
14 -12 35 1 7 4 19 3 27 -4 11 -9 14 -8 13 7 0 21 8 59 16 72 4 5 1 12 -4 14
-6 3 -5 4 2 3 7 -2 12 -10 10 -17 -1 -9 3 -7 12 4 8 10 17 14 20 8 3 -5 3 -11
-1 -14 -5 -2 -2 -2 5 -1 22 6 52 -27 42 -46 -9 -18 -4 -30 12 -30 5 0 7 4 4 9
-3 4 1 17 9 27 13 18 14 18 20 2 4 -10 11 -15 17 -12 5 3 5 11 1 18 -4 7 0 3
10 -7 9 -11 17 -14 17 -8 0 7 4 10 9 6 5 -3 13 0 17 6 4 8 3 9 -4 5 -7 -4 -12
-2 -12 5 0 7 -3 9 -6 6 -4 -3 -14 -2 -23 3 -10 5 -23 5 -31 0 -21 -13 -38 -1
-36 25 3 22 -8 27 -31 12 -6 -4 -14 -3 -18 3 -4 6 -10 8 -15 5 -5 -3 -11 -1
-15 5 -9 14 -25 13 -26 -2z"/>
<path d="M3533 2878 c0 -7 -2 -19 -4 -27 -2 -7 4 -15 15 -16 57 -10 34 -49
-28 -48 l-46 1 24 -19 c30 -24 43 -24 25 -1 -11 14 -11 15 1 5 10 -9 17 -10
27 -2 9 8 17 8 27 -1 12 -9 15 -8 15 7 2 53 3 55 26 33 26 -24 43 -27 24 -3
-12 15 -12 16 1 8 28 -18 41 -15 29 6 -7 15 -14 17 -27 10 -10 -5 -24 -6 -32
-1 -7 4 -20 6 -27 3 -9 -3 -14 0 -13 8 1 8 2 23 1 34 -1 17 -3 18 -11 5 -6
-10 -10 -11 -10 -2 0 6 -4 12 -8 12 -5 0 -9 -6 -9 -12z m32 -27 c-9 -8 -36
-10 -30 -2 2 4 11 8 20 8 8 0 13 -3 10 -6z"/>
<path d="M3235 2850 c-4 -6 -10 -8 -15 -5 -4 3 -13 -1 -18 -8 -9 -10 -3 -13
28 -13 34 0 38 2 29 18 -11 21 -15 22 -24 8z"/>
<path d="M3805 2850 c-3 -6 -11 -7 -17 -4 -8 5 -9 1 -5 -10 4 -10 7 -20 7 -22
0 -3 5 -2 10 1 6 4 7 12 3 18 -4 7 5 4 19 -5 22 -15 27 -15 32 -3 3 8 12 12
20 9 21 -8 -3 -33 -27 -28 -10 2 -17 -2 -15 -8 2 -6 16 -12 31 -14 15 -1 25 1
23 5 -3 4 -1 13 4 21 5 8 4 22 -1 32 -8 15 -14 16 -30 7 -15 -7 -24 -7 -34 1
-9 8 -15 8 -20 0z"/>
<path d="M3927 2844 c3 -7 9 -14 14 -14 14 0 10 17 -5 23 -10 4 -13 1 -9 -9z"/>
<path d="M3005 2836 c-11 -13 -16 -29 -20 -63 -2 -17 2 -23 15 -23 29 0 41 22
23 45 -15 20 -15 20 -10 -2 3 -13 0 -26 -5 -30 -7 -3 -8 -1 -4 5 4 7 2 12 -4
12 -8 0 -8 6 0 20 6 11 15 18 21 15 11 -7 12 5 1 21 -5 9 -10 9 -17 0z"/>
<path d="M3703 2843 c4 -6 0 -14 -8 -17 -12 -4 -13 -11 -7 -23 5 -10 7 -25 4
-33 -4 -13 -3 -13 11 -2 19 16 41 6 33 -15 -4 -9 -1 -13 6 -10 7 2 12 10 10
16 -1 7 2 9 9 5 7 -4 10 -1 7 7 -3 8 -10 15 -16 15 -7 1 -18 2 -26 3 -8 0 -14
10 -13 22 1 20 2 20 17 2 9 -10 21 -19 27 -20 14 -3 23 31 12 48 -7 12 -9 11
-10 -1 -1 -8 -1 -19 0 -23 1 -5 -13 2 -31 14 -17 13 -29 18 -25 12z"/>
<path d="M3941 2823 c-13 -12 -27 -20 -32 -18 -4 3 -10 1 -14 -5 -3 -5 -3 -10
2 -11 4 0 19 -2 33 -5 19 -3 21 -2 10 5 -8 6 -11 13 -7 18 11 11 26 -16 22
-39 -3 -12 1 -18 8 -15 7 2 11 13 9 23 -2 18 -2 18 12 1 8 -11 17 -14 20 -8 4
6 14 7 22 4 14 -5 14 -3 3 15 -12 18 -14 19 -25 4 -10 -14 -13 -13 -23 6 -7
13 -9 27 -6 32 12 19 -11 15 -34 -7z"/>
<path d="M3041 2819 c-10 -18 -10 -24 4 -39 9 -10 14 -23 11 -28 -3 -6 1 -13
10 -16 12 -5 14 -1 9 15 -6 18 -10 33 -14 59 -1 3 -6 -2 -11 -10 -5 -8 -10
-10 -10 -4 0 20 13 23 34 9 20 -15 45 -21 33 -8 -4 3 -1 13 6 21 10 13 9 14
-8 4 -15 -8 -24 -7 -35 3 -14 12 -17 11 -29 -6z"/>
<path d="M3373 2833 c-6 -2 -9 -16 -7 -29 3 -18 1 -23 -7 -18 -8 4 -9 3 -5 -5
4 -6 12 -8 18 -5 6 4 8 2 4 -4 -3 -6 -2 -13 4 -17 5 -3 10 -1 10 5 0 7 8 9 21
5 16 -5 19 -4 14 5 -5 9 -4 11 4 6 6 -4 9 -11 6 -16 -3 -4 1 -11 7 -14 7 -3 2
-3 -12 0 l-25 7 19 -22 c17 -19 21 -20 29 -6 6 11 3 24 -8 41 -14 21 -14 28
-3 42 8 9 8 13 1 9 -6 -4 -13 -2 -15 5 -4 12 -34 18 -55 11z m48 -31 c2 2 -1
-4 -8 -12 -11 -12 -15 -12 -28 3 -8 9 -10 12 -3 7 23 -19 31 -10 12 13 -19 22
-19 22 2 4 11 -9 23 -16 25 -15z"/>
<path d="M3163 2807 c-2 -4 -9 -4 -15 -1 -8 5 -9 1 -5 -11 4 -9 2 -24 -4 -31
-7 -8 -7 -14 -1 -14 14 0 33 25 25 33 -3 4 0 7 8 8 8 1 23 2 34 3 11 0 28 -3
39 -7 22 -10 45 6 25 18 -16 11 -100 12 -106 2z"/>
<path d="M3810 2811 c-8 -6 -17 -8 -21 -5 -4 2 -10 -3 -13 -12 -4 -11 -1 -14
12 -10 9 3 24 1 32 -4 12 -8 10 -10 -9 -8 -14 2 -26 -3 -28 -12 -4 -13 -3 -13
7 0 10 13 11 13 7 0 -2 -8 -10 -14 -17 -12 -14 3 -40 -16 -40 -30 0 -6 7 -5
15 2 12 10 18 8 35 -11 10 -13 19 -19 20 -12 0 6 -4 15 -10 18 -19 12 12 43
38 39 14 -3 21 -1 17 6 -3 5 -1 10 4 10 6 0 11 -5 11 -11 0 -5 4 -8 8 -5 5 3
9 -1 10 -9 1 -8 3 -22 4 -30 1 -9 6 -14 12 -12 6 3 9 11 8 18 -12 46 -11 49 8
39 13 -7 21 -7 25 0 7 11 7 11 -55 14 -61 4 -84 14 -69 32 13 16 10 17 -11 5z"/>
<path d="M3113 2798 c1 -8 -7 -12 -23 -10 -14 1 -20 -1 -15 -5 10 -8 17 -35
15 -63 -3 -64 -1 -83 8 -89 6 -3 12 -13 14 -21 2 -8 9 -20 17 -26 12 -10 12
-16 2 -43 -8 -17 -18 -31 -23 -31 -5 0 -2 10 6 22 18 25 21 53 6 43 -5 -3 -11
-1 -11 4 -1 6 -2 15 -3 21 0 5 -7 15 -15 22 -12 11 -13 10 -8 -5 4 -11 3 -16
-3 -12 -6 3 -10 2 -10 -4 0 -5 5 -11 11 -13 7 -2 -5 -4 -25 -5 -45 -1 -54 12
-24 36 13 11 20 22 16 26 -4 4 -14 0 -23 -9 -20 -20 -29 -20 -49 0 -12 12 -16
12 -16 2 0 -8 -5 -5 -11 6 -18 30 12 51 73 51 60 0 73 16 31 39 -15 8 -22 15
-15 16 6 0 12 6 12 13 -1 6 -9 2 -19 -10 -10 -12 -21 -20 -24 -16 -4 3 -22 -9
-41 -27 -32 -30 -34 -38 -35 -91 0 -38 4 -59 11 -59 7 0 3 -7 -8 -15 -10 -8
-14 -15 -9 -15 9 0 11 -294 2 -362 -2 -16 1 -28 7 -28 7 0 7 -3 1 -8 -11 -8
-14 -162 -3 -162 4 0 5 -6 2 -13 -8 -23 -10 -227 -1 -227 5 0 5 -5 1 -12 -4
-7 -8 -270 -9 -585 l-1 -573 584 0 583 0 -1 590 c-1 446 -4 590 -13 590 -7 0
-6 4 2 9 13 8 13 12 0 27 -8 10 -9 15 -3 11 7 -4 12 2 12 18 0 14 -4 23 -8 20
-3 -2 -7 2 -7 10 0 8 4 12 8 10 4 -3 6 13 6 35 -1 22 -6 40 -11 40 -8 0 -8 3
0 8 14 10 14 133 0 125 -6 -4 -5 1 3 10 11 14 11 17 0 17 -11 0 -11 2 1 10 13
9 13 11 0 20 -8 5 -10 10 -4 10 6 0 12 11 12 25 0 14 -4 25 -9 25 -5 0 -9 5
-9 11 0 5 5 7 10 4 16 -10 12 6 -7 29 -15 17 -15 18 -2 8 15 -11 17 -8 15 25
0 21 -5 44 -10 52 -6 9 -5 12 0 8 6 -3 10 33 10 94 0 63 -4 99 -11 99 -6 0
-11 -9 -12 -20 -1 -13 2 -18 9 -14 7 5 8 2 3 -6 -6 -10 -11 -9 -21 5 -16 21
-2 45 25 45 14 0 14 2 1 10 -8 5 -10 10 -4 10 6 0 10 19 10 45 -1 25 -4 45 -8
45 -12 0 -15 -25 -5 -45 9 -19 8 -19 -8 -4 -14 14 -15 21 -6 38 7 11 15 21 20
21 4 0 8 8 8 17 0 12 -9 6 -29 -17 -15 -19 -28 -30 -28 -25 0 5 9 19 21 31 17
18 19 26 10 43 -7 12 -16 21 -22 21 -6 0 -6 -8 1 -21 9 -16 8 -25 -6 -40 -21
-23 -42 -24 -66 -2 -10 9 -18 11 -18 5 0 -16 47 -45 60 -37 5 3 10 1 10 -4 0
-18 -35 -12 -59 10 -14 13 -20 27 -16 38 13 32 12 58 -6 79 -9 12 -20 22 -24
22 -4 0 -2 -7 5 -15 9 -11 8 -19 -7 -39 -22 -32 -30 -32 -28 -3 2 23 -13 62
-21 54 -3 -2 0 -16 5 -29 8 -21 7 -25 -6 -24 -9 0 -18 -6 -20 -14 -4 -12 -3
-12 5 -1 7 9 12 10 16 2 6 -10 -6 -15 -26 -12 -11 2 -10 -17 1 -24 5 -3 12 -1
16 5 3 5 19 8 36 6 20 -2 29 0 26 8 -3 7 2 21 10 31 13 19 14 19 9 -7 -2 -15
-8 -32 -11 -38 -4 -6 1 -22 10 -37 15 -22 15 -27 2 -40 -11 -12 -16 -12 -22
-2 -5 7 -4 10 2 6 6 -4 13 0 17 8 3 8 1 17 -4 20 -6 4 -10 1 -10 -4 0 -6 -5
-11 -12 -11 -9 0 -9 3 0 12 20 20 13 32 -8 13 -24 -22 -27 -13 -4 10 9 9 13
19 9 23 -4 4 -15 -4 -26 -17 -10 -13 -19 -19 -19 -14 0 5 5 14 12 21 7 7 8 12
2 12 -6 0 -15 -5 -20 -10 -16 -16 -38 14 -27 37 5 10 8 28 8 40 -1 12 1 20 6
17 4 -2 5 -12 2 -22 -5 -14 -3 -15 7 -5 21 19 -6 46 -32 32 -15 -8 -17 -13 -8
-24 8 -9 8 -20 2 -32 -5 -10 -7 -25 -4 -33 7 -21 28 -40 36 -33 3 4 6 1 6 -5
0 -17 -10 -15 -33 6 -19 16 -20 16 -14 0 4 -11 -3 -25 -17 -39 -22 -21 -23
-25 -9 -46 15 -22 10 -48 -7 -38 -5 3 -13 -3 -19 -12 -5 -10 -13 -14 -17 -10
-9 9 27 37 38 31 13 -8 9 10 -8 34 -15 22 -15 24 2 36 9 7 19 19 20 27 2 8 6
24 10 36 4 16 1 25 -10 29 -9 3 -16 11 -16 16 0 6 6 5 15 -2 21 -18 19 -3 -4
21 -12 13 -21 17 -26 10 -3 -6 -3 -11 2 -11 4 0 0 -5 -9 -11 -9 -5 -16 -15
-14 -22 1 -6 1 -9 -1 -4 -9 16 -20 6 -20 -18 0 -25 11 -34 20 -15 3 6 4 5 3
-2 -2 -7 -9 -13 -17 -13 -9 0 -14 11 -14 34 0 20 -6 36 -14 39 -9 3 -11 0 -6
-9 6 -11 5 -12 -6 -1 -18 16 -34 15 -20 -2 9 -11 8 -15 -6 -20 -11 -4 -22 -1
-29 8 -18 25 -28 19 -12 -6 12 -21 11 -25 -9 -45 -13 -12 -23 -19 -23 -15 0 4
-4 0 -10 -8 -5 -8 -12 -12 -15 -8 -3 3 8 16 24 28 17 12 31 26 31 31 0 18 -52
-25 -82 -68 -16 -25 -33 -42 -36 -38 -4 3 -2 9 4 13 5 4 21 23 34 42 13 19 29
38 35 42 6 5 3 8 -7 8 -9 0 -22 -8 -27 -17 -10 -17 -12 -17 -25 0 -7 9 -19 17
-25 17 -6 0 -3 -10 9 -22 34 -37 22 -38 -16 -1 -20 19 -39 31 -43 28 -3 -4 10
-20 29 -36 19 -15 29 -29 23 -29 -7 0 -13 5 -13 12 0 6 -3 9 -6 6 -3 -3 -15 4
-28 16 -19 19 -20 23 -8 44 19 30 -2 28 -22 -3 -15 -23 -15 -25 5 -38 18 -13
18 -15 3 -21 -10 -4 -22 -2 -28 4 -19 19 -29 10 -11 -10 10 -11 13 -20 8 -20
-6 0 -14 7 -17 16 -3 8 -10 12 -16 9 -5 -3 -10 -1 -10 4 0 6 5 11 11 11 6 0 7
6 2 13 -4 6 5 4 21 -6 15 -10 30 -16 33 -13 3 3 -8 13 -26 23 -33 19 -44 41
-11 23 15 -8 21 -6 30 10 7 13 7 20 0 20 -5 0 -10 -4 -10 -10 0 -5 -5 -10 -11
-10 -8 0 -8 5 1 15 15 18 -1 20 -19 3 -11 -11 -12 -10 -6 1 5 9 3 12 -6 9 -8
-3 -14 -19 -14 -39 0 -23 -5 -34 -14 -34 -8 0 -15 6 -17 13 -1 7 0 8 3 2 9
-19 21 -10 21 15 0 24 -12 34 -21 18 -2 -5 -2 -3 -1 4 2 6 -9 19 -23 28 -25
17 -26 17 -19 0 4 -11 0 -22 -10 -30 -12 -9 -15 -18 -9 -31 5 -10 9 -23 10
-29 0 -5 4 -16 9 -24 6 -9 4 -18 -7 -26 -9 -7 -14 -15 -10 -19 4 -4 -1 -4 -12
0 -12 5 -14 9 -6 12 9 3 8 9 -5 23 -9 10 -12 19 -7 19 6 0 13 -7 17 -15 3 -8
11 -15 17 -15 7 0 5 10 -6 26 -9 15 -12 23 -6 20 6 -4 11 -3 11 3 0 22 -20 20
-39 -5 -12 -15 -21 -22 -21 -17 0 5 5 14 12 21 16 16 5 24 -39 26 -21 0 -43 4
-49 8 -15 10 -11 74 4 71 19 -4 14 11 -8 25 -11 7 -20 18 -20 25 0 6 5 4 11
-5 5 -10 15 -18 21 -18 6 0 8 3 5 7 -4 3 -2 12 3 18 6 7 8 20 4 29 -7 19 -25
22 -21 4z m17 -18 c0 -5 -5 -10 -11 -10 -5 0 -7 5 -4 10 3 6 8 10 11 10 2 0 4
-4 4 -10z m-120 -60 c0 -5 -5 -10 -11 -10 -5 0 -7 5 -4 10 3 6 8 10 11 10 2 0
4 -4 4 -10z m57 -3 c2 -3 -8 -4 -22 -4 -14 0 -25 3 -25 8 0 7 38 4 47 -4z
m223 -68 c0 -5 -4 -7 -10 -4 -5 3 -10 1 -10 -4 0 -6 5 -11 11 -11 5 0 7 -4 4
-10 -3 -5 -2 -10 3 -10 5 0 14 -12 21 -27 l11 -28 -19 22 c-10 12 -21 20 -25
18 -3 -3 -4 -2 -1 2 3 3 -2 17 -10 29 -11 17 -12 24 -2 27 20 9 27 8 27 -4z
m400 4 c0 -5 -14 -16 -31 -26 -18 -10 -29 -20 -26 -24 4 -3 18 2 33 12 15 9
23 12 20 6 -4 -6 -2 -11 3 -11 6 0 11 -4 11 -9 0 -5 -12 -8 -27 -5 -23 4 -25
3 -13 -11 8 -10 9 -15 1 -15 -6 0 -11 4 -11 9 0 5 -9 13 -20 16 -19 6 -18 9
16 36 39 31 44 33 44 22z m88 -1 c9 -6 7 -13 -8 -30 -11 -11 -20 -26 -20 -31
0 -13 -49 -46 -56 -38 -3 3 3 8 14 11 11 4 25 20 32 36 7 17 16 30 21 30 5 0
9 5 9 11 0 5 -4 7 -10 4 -5 -3 -10 -1 -10 4 0 13 10 14 28 3z m-800 -41 c11
-7 11 -9 -1 -14 -16 -6 -27 0 -27 15 0 10 11 10 28 -1z m180 -9 c2 -7 -1 -12
-8 -12 -6 0 -9 4 -6 9 4 5 1 12 -4 14 -6 3 -5 4 2 3 6 -1 14 -8 16 -14z m26 3
c-4 -8 -8 -15 -10 -15 -2 0 -4 7 -4 15 0 8 4 15 10 15 5 0 7 -7 4 -15z m678
-27 c-14 -17 -77 -54 -68 -40 3 6 1 12 -6 14 -7 3 -5 7 6 11 10 4 15 3 11 -3
-3 -6 -2 -10 3 -10 16 0 22 13 11 27 -8 8 -8 13 -1 13 6 0 13 -6 16 -12 3 -9
8 -8 16 5 7 10 14 16 17 13 3 -3 1 -11 -5 -18z m-886 3 c18 15 32 4 32 -27 0
-17 -3 -22 -8 -13 -5 6 -6 19 -3 27 5 11 2 12 -13 5 -22 -12 -44 -7 -44 10 0
8 3 8 12 -1 8 -8 15 -8 24 -1z m475 -1 c25 -14 24 -27 -2 -41 -13 -6 -19 -7
-15 -1 3 6 0 13 -6 16 -7 3 -3 3 10 0 24 -6 31 10 8 19 -19 8 -53 -17 -38 -27
7 -4 12 -12 12 -19 0 -6 -6 -2 -14 9 -13 17 -12 21 1 37 19 20 19 20 44 7z
m169 -2 c0 -6 -3 -8 -6 -5 -4 3 -16 0 -26 -8 -11 -7 -27 -11 -34 -8 -10 4 -12
0 -8 -13 6 -15 4 -16 -6 -7 -15 14 -3 36 15 29 7 -2 21 2 32 9 22 18 33 19 33
3z m285 -15 c10 -16 12 -23 5 -16 -11 10 -16 9 -25 -4 -7 -9 -17 -13 -24 -9
-9 6 -9 11 0 22 6 7 16 11 22 7 6 -4 8 0 4 10 -10 25 -1 20 18 -10z m130 -42
c11 -6 15 -11 8 -11 -7 0 -24 11 -40 24 -25 22 -29 22 -40 7 -10 -14 -14 -14
-25 -2 -11 12 -10 13 6 7 14 -5 17 -2 12 9 -4 11 -2 14 6 9 8 -5 9 -1 4 12 -4
12 4 7 21 -13 15 -17 37 -36 48 -42z m-2 52 c-4 -11 -3 -14 5 -9 8 5 10 2 6
-9 -5 -11 -2 -14 12 -9 16 6 17 5 6 -7 -11 -12 -15 -11 -26 3 -7 10 -17 14
-21 10 -4 -4 -2 3 4 16 14 26 23 30 14 5z m-856 1 c-3 -3 -12 -4 -19 -1 -8 3
-5 6 6 6 11 1 17 -2 13 -5z m175 -1 c-15 -6 -6 -23 11 -19 7 1 9 1 4 -1 -4 -3
-4 -10 0 -16 4 -7 -2 -5 -13 3 -10 8 -21 15 -23 17 -7 4 11 23 22 22 9 0 8 -2
-1 -6z m288 -33 c-9 -17 1 -42 16 -41 5 1 9 -8 9 -19 0 -11 -4 -20 -10 -19 -5
0 -13 -10 -17 -23 -7 -22 -7 -22 -5 2 1 14 8 24 15 23 6 -2 12 6 12 18 0 11
-5 17 -10 14 -6 -3 -13 1 -16 9 -3 9 -11 13 -17 9 -6 -3 -3 4 6 16 8 13 13 31
10 40 -4 13 -3 14 5 2 6 -9 7 -21 2 -31z m-560 -16 c0 -3 -4 -2 -10 1 -5 3
-10 1 -10 -5 0 -7 -8 -9 -21 -5 -15 5 -19 4 -15 -4 4 -6 0 -14 -8 -17 -9 -3
-13 -10 -10 -15 3 -5 -3 -6 -12 -2 -11 4 -13 8 -6 11 7 2 10 8 7 13 -4 5 1 6
10 3 10 -4 15 -2 13 7 -2 8 5 14 14 14 26 0 32 12 9 20 -12 3 -21 11 -21 16 0
6 14 1 30 -11 17 -12 30 -24 30 -26z m25 28 c0 -15 -14 -14 -39 4 -18 12 -17
13 10 11 16 -1 29 -8 29 -15z m105 8 c0 -5 -4 -10 -10 -10 -5 0 -10 5 -10 10
0 6 5 10 10 10 6 0 10 -4 10 -10z m74 -12 c-6 -20 -5 -21 10 -9 10 9 16 10 16
2 0 -10 -13 -15 -32 -12 -5 0 -8 -4 -8 -11 0 -6 -2 -9 -5 -6 -6 5 15 58 22 58
3 0 1 -10 -3 -22z m-100 -17 c-4 -3 -9 0 -11 7 -3 6 -10 9 -15 6 -7 -4 -8 -2
-4 5 6 9 11 9 22 0 8 -6 12 -15 8 -18z m428 22 c-6 -2 -10 -9 -7 -14 4 -5 -1
-6 -10 -2 -13 5 -14 7 -3 14 7 5 18 8 23 8 6 0 4 -3 -3 -6z m64 -2 c-3 -5 1
-12 10 -15 17 -6 10 -26 -9 -26 -8 0 -8 3 1 9 11 7 11 9 -2 14 -9 4 -16 1 -16
-5 0 -6 -3 -8 -6 -5 -4 4 -1 13 6 22 13 16 25 21 16 6z m-699 -41 l-15 -22 -7
22 c-4 12 -4 24 -1 27 3 4 6 -1 6 -11 0 -9 4 -15 10 -11 5 3 6 13 3 23 -5 13
-3 14 7 5 10 -9 9 -16 -3 -33z m772 12 c0 -14 -2 -13 -9 3 -8 19 -11 17 -14
-15 0 -8 -7 -14 -13 -12 -7 1 -13 -7 -13 -18 0 -11 6 -19 12 -17 7 1 14 -9 15
-23 2 -24 2 -24 -5 -2 -4 13 -11 23 -17 23 -5 -1 -10 9 -10 22 0 13 5 21 14
19 9 -2 11 3 7 14 -4 10 -1 21 6 25 16 10 28 2 27 -19z m-549 -19 c-11 -17
-11 -17 -6 0 3 10 6 24 7 30 0 9 2 9 5 0 3 -7 0 -20 -6 -30z m127 15 c-3 -8
-6 -5 -6 6 -1 11 2 17 5 13 3 -3 4 -12 1 -19z m73 -13 c0 -5 -5 -3 -10 5 -5 8
-10 20 -10 25 0 6 5 3 10 -5 5 -8 10 -19 10 -25z m90 0 c0 -5 -5 -3 -10 5 -5
8 -10 20 -10 25 0 6 5 3 10 -5 5 -8 10 -19 10 -25z m91 20 c5 4 6 -2 2 -12 -3
-10 -3 -15 2 -11 9 9 45 -9 45 -22 0 -6 -5 -10 -11 -10 -5 0 -7 5 -4 10 6 9
-8 14 -28 11 -4 -1 -10 6 -13 14 -3 8 -10 12 -15 9 -5 -3 -6 3 -2 12 4 11 8
13 11 6 2 -7 8 -10 13 -7z m269 -6 c0 -6 -4 -7 -10 -4 -5 3 -10 11 -10 16 0 6
5 7 10 4 6 -3 10 -11 10 -16z m-680 1 c8 -5 11 -10 5 -10 -5 0 -17 5 -25 10
-8 5 -10 10 -5 10 6 0 17 -5 25 -10z m285 0 c-3 -5 -1 -10 4 -10 6 0 11 -5 11
-11 0 -8 -5 -8 -15 1 -12 10 -18 10 -30 0 -8 -7 -15 -8 -15 -3 0 6 10 15 23
21 29 14 29 14 22 2z m68 -5 c-3 -10 0 -15 8 -13 18 4 20 -42 3 -49 -8 -3 -11
-10 -7 -16 3 -6 1 -7 -5 -3 -16 10 -15 26 1 26 7 0 13 9 14 20 1 11 -3 19 -10
17 -6 -1 -13 6 -15 16 -2 9 1 17 7 17 6 0 8 -7 4 -15z m387 5 c0 -5 -11 -12
-25 -16 -13 -3 -23 -11 -22 -16 1 -6 -4 -12 -11 -13 -7 -2 -8 -1 -2 2 5 2 7 9
4 15 -3 5 3 12 15 15 12 3 21 9 21 14 0 5 5 9 10 9 6 0 10 -4 10 -10z m70 0
c-8 -5 -19 -10 -25 -10 -5 0 -3 5 5 10 8 5 20 10 25 10 6 0 3 -5 -5 -10z
m-735 -19 c-3 -6 -11 -9 -16 -6 -5 4 -9 -3 -9 -14 0 -12 6 -20 12 -18 7 1 14
-9 15 -23 2 -24 2 -24 -5 -2 -4 13 -11 23 -17 23 -5 -1 -10 9 -10 22 0 12 5
21 13 20 6 -2 12 2 12 9 0 6 3 9 6 5 3 -3 3 -11 -1 -16z m60 0 c-3 -6 -10 -9
-15 -6 -5 3 -13 -3 -19 -12 -5 -10 -13 -14 -17 -10 -9 9 27 37 38 31 5 -3 8 0
8 7 0 7 3 10 6 6 3 -3 3 -11 -1 -16z m60 0 c-3 -6 -10 -9 -15 -6 -5 3 -8 -4
-7 -15 1 -11 7 -20 14 -20 16 0 17 -16 1 -26 -6 -4 -8 -3 -5 3 4 6 1 13 -7 16
-16 7 -15 53 2 50 7 -2 12 2 12 9 0 6 3 9 6 5 3 -3 3 -11 -1 -16z m-275 -1 c0
-5 -4 -10 -10 -10 -5 0 -10 5 -10 10 0 6 5 10 10 10 6 0 10 -4 10 -10z m74 -5
c11 -8 15 -15 10 -15 -6 0 -19 7 -30 15 -10 8 -14 14 -9 14 6 0 19 -6 29 -14z
m672 3 c5 -7 3 -8 -5 -4 -8 6 -11 2 -9 -10 2 -11 11 -24 22 -30 17 -10 17 -12
2 -17 -10 -4 -15 -3 -12 2 3 5 0 11 -8 14 -14 6 -16 57 -2 57 3 0 8 -5 12 -12z
m92 -2 c-7 -8 -15 -12 -17 -11 -5 6 10 25 20 25 5 0 4 -6 -3 -14z m97 -16 c0
-19 -5 -24 -25 -24 -18 0 -25 5 -26 19 -1 30 6 36 29 33 16 -2 22 -10 22 -28z
m-1060 -9 c-6 -5 -25 10 -25 20 0 5 6 4 14 -3 8 -7 12 -15 11 -17z m986 1 c-6
-11 -19 -19 -28 -18 -10 2 -22 -2 -26 -8 -6 -7 -7 -6 -4 4 2 8 14 14 26 14 15
-1 20 3 17 13 -3 8 -1 11 4 8 6 -3 10 -1 10 6 0 7 3 10 6 7 3 -4 1 -15 -5 -26z
m-888 0 c-2 -7 6 -12 17 -12 11 0 19 5 18 12 -2 6 5 14 15 16 9 2 17 -1 17 -7
0 -6 -7 -8 -15 -4 -10 3 -15 0 -13 -8 2 -9 -6 -14 -19 -14 -13 0 -23 4 -22 10
0 5 -8 13 -18 17 -16 7 -16 8 2 5 11 -2 19 -9 18 -15z m254 -4 c-3 -8 -6 -5
-6 6 -1 11 2 17 5 13 3 -3 4 -12 1 -19z m73 12 c0 -5 -4 -10 -10 -10 -5 0 -10
5 -10 10 0 6 5 10 10 10 6 0 10 -4 10 -10z m120 0 c0 -5 -4 -10 -10 -10 -5 0
-10 5 -10 10 0 6 5 10 10 10 6 0 10 -4 10 -10z m57 -12 c-3 -8 -6 -5 -6 6 -1
11 2 17 5 13 3 -3 4 -12 1 -19z m230 0 c-3 -8 -6 -5 -6 6 -1 11 2 17 5 13 3
-3 4 -12 1 -19z m91 2 c-7 -10 -14 -17 -17 -15 -4 4 18 35 25 35 2 0 -1 -9 -8
-20z m-607 -17 c-12 -20 -14 -14 -5 12 4 9 9 14 11 11 3 -2 0 -13 -6 -23z
m329 -8 c0 -5 -5 -3 -10 5 -5 8 -10 20 -10 25 0 6 5 3 10 -5 5 -8 10 -19 10
-25z m151 8 c-12 -20 -14 -14 -5 12 4 9 9 14 11 11 3 -2 0 -13 -6 -23z m-765
5 c5 -7 3 -8 -6 -3 -9 5 -10 2 -6 -13 8 -24 -4 -35 -24 -20 -12 8 -11 9 4 4
14 -5 17 -2 12 10 -10 26 6 44 20 22z m39 4 c-5 -4 -11 -14 -13 -24 -2 -12 3
-15 17 -11 22 5 37 -12 20 -23 -8 -5 -9 -3 -4 5 5 9 0 12 -16 9 -18 -2 -24 2
-25 17 -1 26 4 35 19 35 8 0 8 -3 2 -8z m153 -17 c2 -9 0 -21 -6 -27 -6 -6 -8
-1 -5 14 3 18 0 24 -15 25 -14 1 -19 -4 -18 -19 0 -12 -6 -23 -14 -25 -9 -3
-11 -1 -5 4 6 4 10 15 10 23 -2 24 5 30 28 26 12 -1 24 -11 25 -21z m262 15
c0 -5 -4 -10 -10 -10 -5 0 -10 5 -10 10 0 6 5 10 10 10 6 0 10 -4 10 -10z
m-41 -45 c0 -5 -4 -3 -9 5 -5 8 -9 22 -9 30 0 16 17 -16 18 -35z m71 8 c-11
-17 -11 -17 -6 0 3 10 6 24 7 30 0 9 2 9 5 0 3 -7 0 -20 -6 -30z m-155 18 c-3
-2 3 -10 13 -18 16 -13 15 -13 -3 -4 -43 22 -51 30 -28 28 12 0 20 -3 18 -6z
m140 -1 c-3 -5 -12 -10 -18 -10 -7 0 -6 4 3 10 19 12 23 12 15 0z m104 -8
c-15 -10 -24 -25 -22 -37 l3 -20 -9 20 c-6 14 -5 23 5 31 7 6 12 13 9 15 -2 3
6 6 17 6 21 2 21 1 -3 -15z m118 -2 c-1 -11 -5 -20 -9 -20 -3 0 -6 9 -5 20 1
11 5 20 9 20 3 0 6 -9 5 -20z m118 11 c-3 -2 3 -10 13 -18 16 -13 15 -13 -3
-4 -43 22 -51 30 -28 28 12 0 20 -3 18 -6z m160 -1 c-3 -5 -11 -10 -16 -10 -6
0 -7 5 -4 10 3 6 11 10 16 10 6 0 7 -4 4 -10z m94 -4 c9 -11 9 -16 -1 -22 -7
-4 -10 -4 -6 1 4 4 0 14 -10 21 -9 7 -12 14 -6 14 6 0 17 -6 23 -14z m-949
-22 c0 -2 -9 0 -20 6 -11 6 -20 13 -20 16 0 2 9 0 20 -6 11 -6 20 -13 20 -16z
m820 5 c0 -5 -4 -9 -8 -9 -5 0 -9 7 -9 15 0 8 4 12 9 9 4 -3 8 -9 8 -15z m74
9 c-5 -8 -2 -9 10 -5 10 4 15 3 11 -3 -7 -11 -41 -8 -52 5 -5 4 -2 5 5 1 6 -4
12 -2 12 3 0 6 5 11 11 11 5 0 7 -5 3 -12z m-699 -7 c3 -5 0 -13 -6 -17 -7 -4
-9 -3 -5 4 3 5 0 13 -6 15 -9 4 -10 6 -1 6 6 1 14 -3 18 -8z m89 -16 c9 -14
13 -25 8 -25 -5 0 -14 11 -20 25 -6 14 -10 25 -8 25 2 0 11 -11 20 -25z m122
13 c4 -7 3 -8 -4 -4 -7 4 -12 5 -12 2 0 -2 -3 -12 -7 -22 -5 -13 -3 -15 7 -9
9 6 11 4 5 -4 -13 -22 -28 4 -16 28 13 24 17 25 27 9z m81 5 c-9 -2 -14 -9
-11 -15 4 -7 2 -8 -5 -4 -15 10 -4 26 17 25 15 -1 15 -2 -1 -6z m188 -2 c3 -5
0 -13 -6 -17 -7 -4 -9 -3 -5 4 3 5 0 13 -6 15 -9 4 -10 6 -1 6 6 1 14 -3 18
-8z m-587 -21 c-7 -10 -14 -17 -17 -15 -4 4 18 35 25 35 2 0 -1 -9 -8 -20z
m-180 2 c8 -6 2 -9 -18 -9 -20 0 -26 3 -18 9 7 4 15 8 18 8 3 0 11 -4 18 -8z
m82 -14 c10 -21 10 -21 -3 -6 -8 10 -18 14 -22 10 -5 -4 -5 -1 -1 6 10 17 14
15 26 -10z m66 -4 c1 -9 0 -13 -4 -10 -3 4 -7 14 -8 22 -1 9 0 13 4 10 3 -4 7
-14 8 -22z m104 16 c0 -5 -4 -10 -10 -10 -5 0 -10 5 -10 10 0 6 5 10 10 10 6
0 10 -4 10 -10z m70 -12 c10 -21 10 -21 -3 -6 -8 10 -18 14 -22 10 -5 -4 -5
-1 -1 6 10 17 14 15 26 -10z m113 15 c-7 -2 -19 -2 -25 0 -7 3 -2 5 12 5 14 0
19 -2 13 -5z m177 -5 c0 -6 -3 -8 -7 -5 -3 4 -13 1 -22 -6 -14 -11 -14 -10 -2
6 15 20 31 22 31 5z m120 2 c0 -5 -4 -10 -10 -10 -5 0 -10 5 -10 10 0 6 5 10
10 10 6 0 10 -4 10 -10z m70 -12 c10 -21 10 -21 -3 -6 -8 10 -18 14 -22 10 -5
-4 -5 -1 -1 6 10 17 14 15 26 -10z m50 12 c0 -5 -4 -10 -10 -10 -5 0 -10 5
-10 10 0 6 5 10 10 10 6 0 10 -4 10 -10z m95 0 c-3 -5 -1 -10 6 -10 7 0 10 -2
7 -5 -3 -3 -13 -2 -22 1 -14 5 -15 9 -4 15 17 11 20 11 13 -1z m105 -15 c0 -2
-5 -7 -12 -11 -7 -5 -8 -3 -3 6 5 9 1 11 -16 6 -13 -3 -18 -3 -11 0 6 3 9 10
6 16 -4 6 2 5 15 -1 11 -7 21 -14 21 -16z m-935 -3 c-3 -3 -11 0 -18 7 -9 10
-8 11 6 5 10 -3 15 -9 12 -12z m552 3 c0 -8 -4 -15 -9 -15 -10 0 -11 14 -1 23
9 10 10 9 10 -8z m-625 -17 c-7 -7 -16 -6 -29 1 -16 11 -15 11 6 5 17 -4 21
-3 16 6 -6 9 -4 11 4 5 9 -5 9 -11 3 -17z m145 2 c-2 -11 -6 -22 -9 -26 -4 -3
-5 2 -3 13 2 10 4 21 4 26 1 4 3 7 6 7 3 0 4 -9 2 -20z m98 11 c3 -6 -5 -15
-17 -21 -21 -10 -21 -10 -6 3 10 8 15 17 11 20 -3 4 -4 7 0 7 3 0 8 -4 12 -9z
m474 -17 c-6 -8 -15 -12 -18 -8 -3 4 0 9 7 11 6 3 9 10 6 15 -4 7 -2 8 5 4 9
-6 9 -11 0 -22z m147 2 c0 -21 -3 -23 -18 -15 -22 12 -24 21 -3 13 11 -5 13
-2 9 10 -3 9 -2 16 3 16 5 0 9 -11 9 -24z m-681 4 c-3 -5 -12 -10 -18 -10 -7
0 -6 4 3 10 19 12 23 12 15 0z m278 -5 c-3 -9 -8 -14 -10 -11 -3 3 -2 9 2 15
9 16 15 13 8 -4z m202 5 c-3 -5 -12 -10 -18 -10 -7 0 -6 4 3 10 19 12 23 12
15 0z m146 -17 c-12 -20 -14 -14 -5 12 4 9 9 14 11 11 3 -2 0 -13 -6 -23z
m-716 6 c11 -16 1 -19 -13 -3 -7 8 -8 14 -3 14 5 0 13 -5 16 -11z m248 -9 c10
-12 9 -12 -4 -2 -9 6 -18 9 -21 6 -3 -3 -9 -1 -12 4 -9 15 22 8 37 -8z m67 10
c0 -5 -4 -10 -10 -10 -5 0 -10 5 -10 10 0 6 5 10 10 10 6 0 10 -4 10 -10z m82
-22 c-8 -8 -9 -4 -5 13 4 13 8 18 11 10 2 -7 -1 -18 -6 -23z m435 10 c-3 -8
-6 -5 -6 6 -1 11 2 17 5 13 3 -3 4 -12 1 -19z m49 10 c4 -6 3 -8 -4 -4 -5 3
-13 0 -15 -6 -3 -8 -6 -6 -6 5 -1 19 14 23 25 5z m-334 -12 c7 4 8 2 4 -4 -4
-6 -13 -9 -21 -6 -8 4 -12 11 -8 17 5 8 8 7 11 -1 2 -7 9 -9 14 -6z m-572 -31
c0 -5 -5 -3 -10 5 -5 8 -10 20 -10 25 0 6 5 3 10 -5 5 -8 10 -19 10 -25z m236
17 c-3 -3 2 -11 12 -19 16 -13 16 -14 -2 -5 -11 5 -21 17 -22 26 -1 9 2 13 8
10 5 -3 7 -8 4 -12z m127 -3 c-4 -15 -8 -17 -14 -8 -6 11 4 28 18 29 0 0 -1
-9 -4 -21z m151 5 c3 -8 2 -12 -4 -9 -6 3 -10 10 -10 16 0 14 7 11 14 -7z
m317 -7 c-10 -9 -11 -8 -5 6 3 10 9 15 12 12 3 -3 0 -11 -7 -18z m-711 -6 c0
-13 -29 -8 -34 5 -3 7 2 10 15 7 10 -3 19 -9 19 -12z m180 5 c0 -2 -7 -7 -16
-10 -8 -3 -12 -2 -9 4 6 10 25 14 25 6z m115 -14 c-3 -3 -11 0 -18 7 -9 10 -8
11 6 5 10 -3 15 -9 12 -12z m265 3 c0 -1 -9 -5 -19 -8 -13 -3 -18 -1 -14 9 4
10 33 10 33 -1z m83 -4 c3 -13 0 -18 -7 -15 -7 3 -13 11 -13 19 0 22 14 18 20
-4z m114 -1 c-1 -11 -5 -20 -9 -20 -10 0 -10 4 -2 24 8 22 13 20 11 -4z
m-1040 -3 c0 -8 -6 -14 -14 -14 -9 0 -10 4 -2 14 6 7 12 13 14 13 1 0 2 -6 2
-13z m78 3 c-3 -5 -1 -10 6 -10 7 0 10 -3 6 -6 -9 -9 -28 6 -22 17 4 5 8 9 11
9 3 0 2 -4 -1 -10z m119 -12 c-5 -7 -2 -9 8 -6 8 4 15 0 15 -7 0 -15 -18 -15
-29 0 -7 9 -2 25 8 25 3 0 2 -5 -2 -12z m128 -6 c-7 -2 -10 -7 -7 -12 3 -4 -3
-14 -13 -21 -14 -11 -15 -11 -5 1 8 9 9 19 3 31 -8 14 -6 16 12 11 13 -3 17
-7 10 -10z m405 12 c-3 -3 -12 -4 -19 -1 -8 3 -5 6 6 6 11 1 17 -2 13 -5z m67
-10 c3 -8 2 -12 -4 -9 -6 3 -10 10 -10 16 0 14 7 11 14 -7z m168 9 c-6 -2 -9
-10 -6 -15 4 -7 2 -8 -5 -4 -13 9 -5 26 12 25 9 0 8 -2 -1 -6z m121 -10 c-3
-7 -6 -13 -8 -13 -2 0 -5 6 -8 13 -3 8 1 14 8 14 7 0 11 -6 8 -14z m-539 -12
c15 -17 15 -19 1 -25 -10 -3 -14 -2 -10 5 4 5 1 16 -5 24 -18 22 -6 18 14 -4z
m332 -7 c1 -9 0 -13 -4 -10 -3 4 -7 14 -8 22 -1 9 0 13 4 10 3 -4 7 -14 8 -22z
m-801 -2 c-3 -3 -11 0 -18 7 -9 10 -8 11 6 5 10 -3 15 -9 12 -12z m65 14 c0
-2 -7 -7 -16 -10 -8 -3 -12 -2 -9 4 6 10 25 14 25 6z m337 -11 c0 -8 -4 -12
-9 -9 -5 3 -6 10 -3 15 9 13 12 11 12 -6z m149 3 c3 -4 -1 -5 -10 -4 -8 1 -18
5 -22 8 -3 4 1 5 10 4 8 -1 18 -5 22 -8z m111 -5 c0 -10 -4 -10 -16 -1 -9 7
-18 13 -20 15 -2 1 5 1 16 0 11 0 20 -7 20 -14z m-581 -39 c1 -9 -1 -13 -4 -9
-4 4 -7 10 -7 13 0 4 -4 14 -9 22 -7 12 -6 13 4 3 8 -7 15 -20 16 -29z m119
18 c-3 -3 -11 0 -18 7 -9 10 -8 11 6 5 10 -3 15 -9 12 -12z m82 3 c0 -8 -4
-12 -9 -9 -5 3 -6 10 -3 15 9 13 12 11 12 -6z m41 -9 c-2 -1 -12 -8 -23 -16
-18 -14 -19 -14 -7 2 8 10 10 23 6 30 -6 9 -3 9 9 -1 10 -8 16 -14 15 -15z
m117 6 c-3 -3 -11 0 -18 7 -9 10 -8 11 6 5 10 -3 15 -9 12 -12z m122 1 c-14
-14 -19 -15 -29 -4 -11 10 -10 11 3 6 10 -4 20 -2 24 4 3 6 9 11 13 11 3 0 -1
-8 -11 -17z m78 -1 c-3 -3 -11 0 -18 7 -9 10 -8 11 6 5 10 -3 15 -9 12 -12z
m26 -15 l-24 -22 19 27 c10 14 21 24 23 22 3 -3 -6 -15 -18 -27z m177 16 c-6
-7 -12 -13 -13 -13 -2 0 -5 6 -8 13 -3 7 3 13 14 13 13 0 15 -3 7 -13z m-702
-12 c0 -11 -5 -17 -13 -14 -10 4 -11 9 -2 19 15 18 15 18 15 -5z m241 4 c0 -8
-3 -13 -5 -10 -3 3 -12 -1 -21 -7 -10 -8 -9 -4 3 10 23 26 23 26 23 7z m123
11 c0 -2 -8 -10 -17 -17 -16 -13 -17 -12 -4 4 13 16 21 21 21 13z m240 0 c0
-2 -8 -10 -17 -17 -16 -13 -17 -12 -4 4 13 16 21 21 21 13z m22 -19 c-7 -8
-10 -16 -7 -19 3 -2 -1 -5 -9 -5 -12 0 -11 5 2 23 9 12 19 20 21 18 2 -2 -1
-10 -7 -17z m224 1 c12 -14 13 -18 3 -10 -9 6 -18 10 -21 7 -2 -3 -5 2 -5 10
0 19 0 19 23 -7z m-387 9 c-2 -1 -13 -9 -24 -17 -19 -14 -19 -14 -6 3 7 9 18
17 24 17 6 0 8 -1 6 -3z m212 -14 c13 -17 13 -17 -6 -3 -11 8 -22 16 -24 17
-2 2 0 3 6 3 6 0 17 -8 24 -17z m109 -8 c14 -19 14 -19 -2 -6 -10 7 -18 18
-18 24 0 6 1 8 3 6 1 -2 9 -13 17 -24z m-919 -2 c13 -16 12 -17 -3 -4 -17 13
-22 21 -14 21 2 0 10 -8 17 -17z m199 13 c0 -2 -8 -10 -17 -17 -16 -13 -17
-12 -4 4 13 16 21 21 21 13z m317 -9 c0 -8 -6 -14 -14 -14 -9 0 -10 4 -2 14 6
7 12 13 14 13 1 0 2 -6 2 -13z m-406 -14 c13 -16 12 -17 -3 -4 -17 13 -22 21
-14 21 2 0 10 -8 17 -17z m209 2 c-10 -12 -10 -18 1 -32 12 -17 12 -17 -6 -1
-15 14 -16 20 -5 32 7 9 15 16 17 16 3 0 0 -7 -7 -15z m-266 -25 c-6 -6 -10
-3 -10 10 0 13 4 16 10 10 7 -7 7 -13 0 -20z m323 15 c0 -8 -3 -13 -5 -10 -3
3 -10 0 -17 -5 -8 -7 -12 -5 -12 5 0 8 4 12 8 9 4 -2 10 0 14 6 9 14 12 13 12
-5z m616 2 c4 3 7 1 7 -5 0 -17 -16 -15 -31 6 -12 15 -12 16 2 5 9 -7 19 -10
22 -6z m-838 -15 c-3 -3 -11 0 -18 7 -9 10 -8 11 6 5 10 -3 15 -9 12 -12z
m469 9 c-8 -8 -34 -10 -38 -2 -3 4 6 7 19 7 14 0 22 -2 19 -5z m222 -3 c3 -4
-1 -5 -10 -4 -8 1 -18 5 -22 8 -3 4 1 5 10 4 8 -1 18 -5 22 -8z m-885 -15 c13
-16 12 -17 -3 -4 -17 13 -22 21 -14 21 2 0 10 -8 17 -17z m556 -16 c1 -11 1
-18 0 -16 -2 2 -8 11 -15 20 -9 12 -9 16 1 16 7 0 14 -9 14 -20z m161 4 c-7
-9 -13 -18 -15 -20 -1 -2 -1 5 0 16 0 11 7 20 14 20 10 0 10 -4 1 -16z m52 14
c0 -2 -6 -8 -13 -14 -10 -8 -14 -7 -14 2 0 8 6 14 14 14 7 0 13 -1 13 -2z m23
-20 c-7 -21 -12 -19 -10 4 0 11 5 18 9 15 4 -3 5 -11 1 -19z m53 13 c3 -4 -1
-5 -10 -4 -8 1 -18 5 -22 8 -3 4 1 5 10 4 8 -1 18 -5 22 -8z m-789 -13 c0 -8
-3 -13 -5 -10 -3 3 -12 -1 -21 -7 -10 -8 -9 -4 3 10 23 26 23 26 23 7z m363
11 c0 -2 -8 -10 -17 -17 -16 -13 -17 -12 -4 4 13 16 21 21 21 13z m480 0 c0
-2 -8 -10 -17 -17 -16 -13 -17 -12 -4 4 13 16 21 21 21 13z m-420 -18 c0 -6
-3 -8 -7 -5 -3 4 -13 1 -22 -6 -14 -11 -14 -10 -2 6 15 20 31 22 31 5z m480 2
c0 -4 -7 -7 -15 -6 -23 3 -26 12 -5 13 11 1 20 -2 20 -7z m80 0 c0 -5 -2 -10
-4 -10 -3 0 -8 5 -11 10 -3 6 -1 10 4 10 6 0 11 -4 11 -10z m-915 -20 c-3 -5
-12 -10 -18 -10 -7 0 -6 4 3 10 19 12 23 12 15 0z m150 -8 c-3 -3 -11 0 -18 7
-9 10 -8 11 6 5 10 -3 15 -9 12 -12z m405 9 c0 -6 -4 -12 -8 -15 -5 -3 -9 1
-9 9 0 8 4 15 9 15 4 0 8 -4 8 -9z m-521 -14 c8 -10 7 -14 -2 -14 -8 0 -14 6
-14 14 0 7 1 13 2 13 2 0 8 -6 14 -13z m777 -13 c1 -9 0 -13 -4 -10 -3 4 -7
14 -8 22 -1 9 0 13 4 10 3 -4 7 -14 8 -22z m-900 -8 c0 -14 -3 -23 -7 -20 -6
3 -6 22 0 42 3 10 7 -2 7 -22z m421 9 c0 -8 -4 -12 -9 -9 -5 3 -6 10 -3 15 9
13 12 11 12 -6z m140 -12 c-4 -3 -1 -13 6 -22 11 -14 10 -14 -5 -2 -16 12 -16
31 -1 31 4 0 3 -3 0 -7z m123 3 c0 -2 -7 -7 -16 -10 -8 -3 -12 -2 -9 4 6 10
25 14 25 6z m34 -5 c3 -5 -2 -15 -12 -22 -15 -12 -16 -12 -5 2 7 9 10 19 6 22
-3 4 -4 7 0 7 3 0 8 -4 11 -9z m-754 -5 c0 -2 -8 -10 -17 -17 -16 -13 -17 -12
-4 4 13 16 21 21 21 13z m116 -22 c1 -9 0 -13 -4 -10 -3 4 -7 14 -8 22 -1 9 0
13 4 10 3 -4 7 -14 8 -22z m285 9 c13 -16 12 -17 -3 -4 -17 13 -22 21 -14 21
2 0 10 -8 17 -17z m-141 1 c0 -8 -19 -13 -24 -6 -3 5 1 9 9 9 8 0 15 -2 15 -3z
m731 -11 c13 -16 12 -17 -3 -4 -17 13 -22 21 -14 21 2 0 10 -8 17 -17z m-910
-30 c13 -16 12 -17 -3 -4 -17 13 -22 21 -14 21 2 0 10 -8 17 -17z m239 13 c0
-2 -8 -10 -17 -17 -16 -13 -17 -12 -4 4 13 16 21 21 21 13z m160 -17 c0 -5 -4
-9 -8 -9 -5 0 -9 7 -9 15 0 8 4 12 9 9 4 -3 8 -9 8 -15z m35 1 c3 -5 1 -10 -4
-10 -6 0 -11 5 -11 10 0 6 2 10 4 10 3 0 8 -4 11 -10z m370 0 c-3 -5 -12 -10
-18 -10 -7 0 -6 4 3 10 19 12 23 12 15 0z m-305 -20 c0 -5 -2 -10 -4 -10 -3 0
-8 5 -11 10 -3 6 -1 10 4 10 6 0 11 -4 11 -10z m40 0 c0 -5 -2 -10 -4 -10 -3
0 -8 5 -11 10 -3 6 -1 10 4 10 6 0 11 -4 11 -10z m40 6 c0 -3 -4 -8 -10 -11
-5 -3 -10 -1 -10 4 0 6 5 11 10 11 6 0 10 -2 10 -4z m40 -6 c0 -5 -2 -10 -4
-10 -3 0 -8 5 -11 10 -3 6 -1 10 4 10 6 0 11 -4 11 -10z m40 6 c0 -3 -4 -8
-10 -11 -5 -3 -10 -1 -10 4 0 6 5 11 10 11 6 0 10 -2 10 -4z m40 0 c0 -3 -4
-8 -10 -11 -5 -3 -10 -1 -10 4 0 6 5 11 10 11 6 0 10 -2 10 -4z m280 -6 c0 -5
-2 -10 -4 -10 -3 0 -8 5 -11 10 -3 6 -1 10 4 10 6 0 11 -4 11 -10z m-585 -20
c3 -5 1 -10 -4 -10 -6 0 -11 5 -11 10 0 6 2 10 4 10 3 0 8 -4 11 -10z m405 0
c0 -5 -5 -10 -11 -10 -5 0 -7 5 -4 10 3 6 8 10 11 10 2 0 4 -4 4 -10z m-305
-9 c3 -5 2 -12 -3 -15 -5 -3 -9 1 -9 9 0 17 3 19 12 6z m202 -6 c0 -8 -4 -12
-9 -9 -5 3 -6 10 -3 15 9 13 12 11 12 -6z m223 11 c0 -2 -6 -9 -14 -15 -11 -9
-16 -9 -22 0 -4 7 -3 9 4 5 6 -3 13 -2 17 4 6 10 15 14 15 6z m55 -5 c3 -5 2
-12 -3 -15 -5 -3 -9 1 -9 9 0 17 3 19 12 6z m-1035 -11 c0 -5 -2 -10 -4 -10
-3 0 -8 5 -11 10 -3 6 -1 10 4 10 6 0 11 -4 11 -10z m360 6 c0 -3 -4 -8 -10
-11 -5 -3 -10 -1 -10 4 0 6 5 11 10 11 6 0 10 -2 10 -4z m276 -8 c3 -4 -1 -5
-10 -4 -8 1 -18 5 -22 8 -3 4 1 5 10 4 8 -1 18 -5 22 -8z m64 -3 c0 -2 -9 -3
-19 -2 -11 0 -18 5 -15 9 4 6 34 0 34 -7z m-439 -12 c13 -16 12 -17 -3 -4 -17
13 -22 21 -14 21 2 0 10 -8 17 -17z m-81 -7 c-7 -7 -13 -7 -20 0 -6 6 -3 10
10 10 13 0 16 -4 10 -10z m656 -1 c-1 -8 -5 -17 -8 -21 -5 -4 -4 16 1 34 3 9
9 -1 7 -13z m-519 -20 c0 -8 -4 -12 -9 -9 -5 3 -6 10 -3 15 9 13 12 11 12 -6z
m303 5 c0 -5 -5 -10 -11 -10 -5 0 -7 5 -4 10 3 6 8 10 11 10 2 0 4 -4 4 -10z
m76 -2 c3 -4 -1 -5 -10 -4 -8 1 -18 5 -22 8 -3 4 1 5 10 4 8 -1 18 -5 22 -8z
m60 -3 c-1 -8 -5 -17 -8 -21 -5 -4 -4 16 1 34 3 9 9 -1 7 -13z m-625 -22 c13
-16 12 -17 -3 -4 -17 13 -22 21 -14 21 2 0 10 -8 17 -17z m360 0 c13 -16 12
-17 -3 -4 -17 13 -22 21 -14 21 2 0 10 -8 17 -17z m-278 -8 c-3 -9 -8 -14 -10
-11 -3 3 -2 9 2 15 9 16 15 13 8 -4z m600 0 c-3 -9 -8 -14 -10 -11 -3 3 -2 9
2 15 9 16 15 13 8 -4z m-93 -19 c0 -2 -7 -7 -16 -10 -8 -3 -12 -2 -9 4 6 10
25 14 25 6z m-385 -45 c3 -5 2 -12 -3 -15 -5 -3 -9 1 -9 9 0 17 3 19 12 6z
m565 -1 c0 -5 -5 -10 -11 -10 -5 0 -7 5 -4 10 3 6 8 10 11 10 2 0 4 -4 4 -10z
m80 -40 c0 -5 -4 -10 -10 -10 -5 0 -10 5 -10 10 0 6 5 10 10 10 6 0 10 -4 10
-10z m-530 -156 c0 -8 -19 -13 -24 -6 -3 5 1 9 9 9 8 0 15 -2 15 -3z"/>
<path d="M3865 2550 c-3 -5 -1 -10 4 -10 6 0 11 5 11 10 0 6 -2 10 -4 10 -3 0
-8 -4 -11 -10z"/>
<path d="M3085 2550 c3 -5 8 -10 11 -10 2 0 4 5 4 10 0 6 -5 10 -11 10 -5 0
-7 -4 -4 -10z"/>
<path d="M3983 2482 c-1 -11 5 -18 17 -18 12 0 18 7 17 18 -1 10 -8 18 -17 18
-9 0 -16 -8 -17 -18z"/>
<path d="M3606 2795 c6 -14 4 -16 -6 -10 -9 5 -11 4 -6 -4 4 -6 12 -8 18 -5 7
5 8 2 3 -6 -5 -9 -2 -10 14 -5 13 4 21 2 21 -5 0 -6 5 -8 10 -5 6 4 7 11 4 17
-4 6 -2 8 4 4 6 -3 14 -1 18 5 4 8 3 9 -4 5 -7 -4 -12 -2 -12 5 0 8 -4 8 -15
-1 -13 -10 -19 -9 -36 6 -19 17 -20 17 -13 -1z"/>
<path d="M4041 2800 c-9 -5 -10 -9 -2 -14 8 -5 8 -13 0 -28 -9 -16 -8 -19 3
-16 7 3 14 10 14 16 1 7 2 18 3 25 1 8 4 8 11 -3 6 -10 4 -20 -7 -32 -16 -18
-8 -25 12 -10 29 21 -4 81 -34 62z"/>
<path d="M2951 2783 c3 -20 -2 -34 -11 -28 -6 4 -7 -1 -3 -11 5 -13 3 -15 -7
-9 -9 5 -11 4 -6 -4 4 -6 12 -9 17 -6 16 11 9 -7 -8 -21 -10 -7 -13 -14 -7
-14 19 0 53 45 49 65 -2 11 -4 23 -4 28 -1 4 -5 7 -11 7 -5 0 -9 -3 -9 -7z"/>
<path d="M3175 2771 c-3 -11 -14 -23 -24 -26 -10 -3 -18 -13 -17 -23 0 -9 -4
-16 -10 -15 -7 1 -11 -11 -10 -30 2 -30 4 -32 41 -33 22 -1 48 -4 58 -9 11 -5
17 -3 17 6 0 7 7 21 17 31 10 11 12 18 4 18 -8 0 -8 5 1 20 7 11 16 20 21 20
4 0 6 -4 2 -9 -3 -5 -1 -12 4 -15 14 -9 24 13 12 27 -8 10 -2 13 27 12 20 0
43 -5 51 -9 9 -6 12 -5 9 5 -3 8 -11 14 -19 14 -8 0 -20 4 -26 8 -7 5 -19 5
-25 0 -7 -4 -17 -8 -23 -9 -5 -1 -16 -3 -24 -5 -7 -2 -16 3 -18 11 -4 13 -3
13 6 0 7 -10 11 -11 11 -3 0 7 -10 17 -21 24 -15 8 -19 8 -15 0 9 -14 0 -14
-24 -1 -15 8 -20 6 -25 -9z m24 -18 c-8 -9 -8 -13 -1 -13 6 0 14 5 17 11 5 6
12 4 20 -8 9 -11 10 -22 4 -29 -5 -6 -7 -20 -3 -30 5 -16 4 -17 -5 -3 -6 9 -9
26 -6 38 2 11 2 21 0 21 -13 0 -35 -14 -35 -22 0 -5 5 -6 10 -3 6 3 10 1 10
-5 0 -7 -7 -10 -15 -6 -17 6 -19 -2 -5 -24 9 -13 10 -13 10 0 0 13 1 13 10 0
5 -8 10 -19 10 -25 0 -5 -4 -4 -9 3 -4 8 -11 13 -15 13 -20 -3 -26 0 -21 9 3
6 -3 10 -15 10 -12 0 -19 -4 -16 -8 2 -4 1 -14 -3 -21 -6 -9 -11 -10 -15 -2
-4 6 -2 11 4 11 6 0 9 4 6 9 -3 4 2 17 10 27 9 10 13 13 9 7 -11 -22 14 -14
26 8 10 19 9 20 -13 15 l-23 -7 23 14 c12 7 20 15 17 18 -3 3 2 6 10 6 11 0
12 -4 4 -14z"/>
<path d="M3465 2761 c-7 -13 12 -24 27 -15 7 4 8 3 4 -4 -4 -7 -14 -12 -23
-12 -21 0 -8 -13 16 -17 11 -1 18 4 18 15 1 31 -28 54 -42 33z"/>
<path d="M3531 2744 c-13 -15 -17 -24 -9 -21 7 2 21 0 30 -4 10 -6 19 -5 23 1
3 5 -1 10 -9 10 -8 0 -17 4 -20 8 -2 4 4 8 15 8 10 0 22 -9 25 -19 6 -18 7
-17 32 5 26 22 26 22 8 1 -11 -13 -14 -23 -9 -23 15 0 36 27 29 38 -3 5 -19 8
-36 7 -17 -1 -33 2 -36 7 -9 14 -19 9 -43 -18z"/>
<path d="M3705 2760 c-3 -5 -12 -7 -20 -4 -8 3 -19 -4 -26 -18 -17 -33 -27
-37 -73 -32 -42 5 -48 5 -106 1 -37 -3 -84 27 -74 47 6 13 -15 -14 -33 -41
-10 -14 -11 -14 -7 -2 3 10 1 20 -5 23 -14 9 -25 -14 -12 -27 10 -10 20 -13
76 -20 12 -1 20 -10 20 -22 0 -16 6 -19 28 -17 18 2 29 -3 33 -13 6 -14 8 -14
24 0 9 8 28 14 41 13 18 -2 24 2 24 17 0 12 8 21 20 22 57 8 67 11 82 26 15
15 15 16 -6 14 -15 -1 -20 -6 -16 -17 5 -12 4 -12 -6 -3 -10 10 -9 15 1 27 7
9 16 14 20 11 11 -7 40 5 40 16 0 12 -17 12 -25 -1z m-279 -57 c-6 -6 -36 9
-36 18 0 5 9 4 20 -3 10 -7 18 -14 16 -15z m157 -20 c-7 -3 -10 -12 -7 -21 5
-15 4 -15 -6 1 -11 18 -36 25 -25 7 3 -5 2 -10 -4 -10 -5 0 -12 6 -15 13 -5
10 -7 10 -12 0 -3 -7 -10 -13 -15 -13 -6 0 -7 5 -4 10 11 18 -14 11 -25 -7
-10 -16 -11 -16 -6 -1 3 9 0 18 -7 21 -6 2 22 4 63 4 41 0 69 -2 63 -4z"/>
<path d="M4010 2760 c0 -7 -7 -10 -15 -7 -8 4 -17 2 -21 -4 -3 -6 -12 -8 -20
-5 -18 7 -18 -8 0 -23 8 -7 14 -26 13 -43 -2 -38 24 -59 51 -42 15 10 18 40 6
53 -6 6 -34 -20 -34 -31 0 -6 7 -5 15 2 9 7 15 8 15 2 0 -12 -28 -24 -33 -14
-3 4 -3 24 -2 45 2 30 0 37 -12 33 -8 -4 -11 -1 -8 5 4 6 12 8 19 6 16 -7 50
19 37 28 -6 3 -11 1 -11 -5z"/>
<path d="M3306 2718 c-6 -26 9 -47 24 -32 10 10 2 54 -10 54 -4 0 -10 -10 -14
-22z"/>
<path d="M3713 2733 c4 -3 2 -12 -5 -20 -14 -17 6 -43 22 -27 12 12 2 54 -13
54 -6 0 -7 -3 -4 -7z"/>
<path d="M4004 2728 c-5 -7 -9 -20 -9 -29 -1 -15 1 -15 28 0 18 10 31 12 33 6
10 -25 24 -39 31 -32 4 5 1 12 -7 17 -8 6 -10 10 -4 10 6 0 11 7 11 15 0 8 -4
15 -9 15 -4 0 -8 -5 -8 -11 0 -5 -10 -3 -22 5 -27 19 -34 20 -44 4z"/>
<path d="M2961 2677 c-6 -6 -11 -15 -11 -21 0 -5 3 -6 7 -3 3 4 15 0 25 -10
17 -15 19 -15 37 1 14 12 25 15 36 9 14 -8 13 -13 -11 -36 -20 -20 -23 -27
-11 -27 22 0 45 38 45 74 0 20 -3 24 -9 15 -6 -9 -12 -10 -16 -4 -11 14 -79
15 -92 2z m48 -8 c5 8 11 9 15 3 3 -5 -1 -12 -9 -16 -20 -7 -46 4 -39 16 4 6
10 5 15 -3 8 -12 10 -12 18 0z"/>
<path d="M3630 2670 c0 -5 5 -10 10 -10 6 0 10 5 10 10 0 6 -4 10 -10 10 -5 0
-10 -4 -10 -10z"/>
</g>
</svg>
